<?xml version="1.0" encoding="utf-8"?>
<!-- Generator: Adobe Illustrator 23.0.0, SVG Export Plug-In . SVG Version: 6.00 Build 0)  -->
<svg version="1.1" id="Layer_1" xmlns="http://www.w3.org/2000/svg" xmlns:xlink="http://www.w3.org/1999/xlink" x="0px" y="0px"
	 viewBox="0 0 1280 1024" style="enable-background:new 0 0 1280 1024;" xml:space="preserve">
<style type="text/css">
	.st0{fill:none;stroke:#57DB8E;stroke-miterlimit:10;}
	.st1{fill:none;stroke:#2DD272;stroke-miterlimit:10;}
	.st2{fill:none;stroke:#24A85B;stroke-miterlimit:10;}
</style>
<g>
	<path class="st0" d="M712.5,0.5c17.72,62.96,50.66,134.96,117,170c117.93,62.28,283.22-34.41,313,16
		c15.56,26.34-25.36,58.95-11,101c16.35,47.88,90.04,66.08,149,74"/>
</g>
<g>
	<path class="st1" d="M668.5,0.5c9.39,49.43,30.36,111.53,82.5,151.5c129.09,98.97,364.93-2.36,386.5,52.5
		c9.22,23.43-32.51,45.24-27,83c7.38,50.53,92.21,80.73,170,99"/>
</g>
<g>
	<path class="st2" d="M654.5,0.5c8.17,39.01,32,123.58,106,170c40.77,25.58,82.51,30.64,135,37c119.69,14.51,200.47-10.2,209,13
		c5.58,15.19-28.03,28.56-30.5,54.5c-4.29,45.12,88.94,93.77,206.5,137.5"/>
</g>
<g>
	<path class="st1" d="M635,0c5.45,35.2,23.07,114.36,89.5,164.5c40.4,30.5,82.71,38.07,136,47c125.82,21.08,219.87-5.75,227,17
		c4.39,14.02-31,25.2-35,50c-5.44,33.73,48.72,83.22,228,158"/>
</g>
<g>
</g>
<g>
</g>
<g>
</g>
<g>
</g>
<g>
</g>
<g>
</g>
<g>
</g>
<g>
</g>
<g>
</g>
<g>
</g>
<g>
</g>
<g>
</g>
<g>
</g>
<g>
</g>
<g>
</g>
</svg>
