<svg width="320" height="322" viewBox="0 0 320 322" fill="none" xmlns="http://www.w3.org/2000/svg">
<g filter="url(#filter0_i)">
<path d="M106 108H214V315C214 317.761 211.761 320 209 320H111C108.239 320 106 317.761 106 315V108Z" fill="url(#paint0_linear)"/>
</g>
<path d="M106 0H315C317.761 0 320 2.23858 320 5V103C320 105.761 317.761 108 315 108H106V0Z" fill="url(#paint1_linear)"/>
<path d="M0 5C0 2.23858 2.23858 0 5 0H106V108H5C2.23858 108 0 105.761 0 103V5Z" fill="#45FA90"/>
<rect x="106" width="11" height="108" fill="url(#paint2_linear)"/>
<defs>
<filter id="filter0_i" x="106" y="108" width="108" height="214" filterUnits="userSpaceOnUse" color-interpolation-filters="sRGB">
<feFlood flood-opacity="0" result="BackgroundImageFix"/>
<feBlend mode="normal" in="SourceGraphic" in2="BackgroundImageFix" result="shape"/>
<feColorMatrix in="SourceAlpha" type="matrix" values="0 0 0 0 0 0 0 0 0 0 0 0 0 0 0 0 0 0 127 0" result="hardAlpha"/>
<feOffset dy="2"/>
<feGaussianBlur stdDeviation="2"/>
<feComposite in2="hardAlpha" operator="arithmetic" k2="-1" k3="1"/>
<feColorMatrix type="matrix" values="0 0 0 0 0 0 0 0 0 0 0 0 0 0 0 0 0 0 0.25 0"/>
<feBlend mode="normal" in2="shape" result="effect1_innerShadow"/>
</filter>
<linearGradient id="paint0_linear" x1="160" y1="108" x2="160" y2="320" gradientUnits="userSpaceOnUse">
<stop stop-color="#24A85B"/>
<stop offset="1" stop-color="#24A85B"/>
</linearGradient>
<linearGradient id="paint1_linear" x1="213" y1="0" x2="213" y2="108" gradientUnits="userSpaceOnUse">
<stop stop-color="#3CDD7F"/>
<stop offset="1" stop-color="#2DD272"/>
</linearGradient>
<linearGradient id="paint2_linear" x1="106" y1="48.6" x2="117" y2="48.6" gradientUnits="userSpaceOnUse">
<stop stop-opacity="0.25"/>
<stop offset="1" stop-color="#C4C4C4" stop-opacity="0"/>
</linearGradient>
</defs>
</svg>
