<?xml version="1.0" encoding="utf-8"?>
<!-- Generator: Adobe Illustrator 23.0.0, SVG Export Plug-In . SVG Version: 6.00 Build 0)  -->
<svg version="1.1" id="Layer_1" xmlns="http://www.w3.org/2000/svg" xmlns:xlink="http://www.w3.org/1999/xlink" x="0px" y="0px"
	 viewBox="0 0 134 73" style="enable-background:new 0 0 134 73;" xml:space="preserve">
<style type="text/css">
	.st0{fill:none;stroke:#0067FB;stroke-miterlimit:10;}
</style>
<g>
	<path d="M7.34,17.43c0.38,0.04,0.82,0,1.42-0.06c1.02-0.14,1.98-0.56,2.72-1.26c0.86-0.78,1.48-1.92,1.72-3.46h-0.06
		c-0.72,0.88-1.76,1.4-3.06,1.4c-2.34,0-3.84-1.76-3.84-3.98c0-2.46,1.78-4.62,4.44-4.62s4.3,2.16,4.3,5.48
		c0,2.86-0.96,4.86-2.24,6.1c-1,0.98-2.38,1.58-3.78,1.74c-0.64,0.1-1.2,0.12-1.62,0.1V17.43z M7.98,9.94c0,1.62,0.98,2.76,2.5,2.76
		c1.18,0,2.1-0.58,2.56-1.36c0.1-0.16,0.16-0.36,0.16-0.64c0-2.22-0.82-3.92-2.66-3.92C9.04,6.78,7.98,8.1,7.98,9.94z"/>
	<path d="M16.58,18.67v-1.08l1.38-1.34c3.32-3.16,4.82-4.84,4.84-6.8c0-1.32-0.64-2.54-2.58-2.54c-1.18,0-2.16,0.6-2.76,1.1
		L16.9,6.76c0.9-0.76,2.18-1.32,3.68-1.32c2.8,0,3.98,1.92,3.98,3.78c0,2.4-1.74,4.34-4.48,6.98l-1.04,0.96v0.04h5.84v1.46H16.58z"
		/>
	<path d="M31.48,12.6v1.3h-4.94v-1.3H31.48z"/>
	<path d="M34,17.43c0.38,0.04,0.82,0,1.42-0.06c1.02-0.14,1.98-0.56,2.72-1.26c0.86-0.78,1.48-1.92,1.72-3.46h-0.06
		c-0.72,0.88-1.76,1.4-3.06,1.4c-2.34,0-3.84-1.76-3.84-3.98c0-2.46,1.78-4.62,4.44-4.62s4.3,2.16,4.3,5.48
		c0,2.86-0.96,4.86-2.24,6.1c-1,0.98-2.38,1.58-3.78,1.74c-0.64,0.1-1.2,0.12-1.62,0.1V17.43z M34.64,9.94
		c0,1.62,0.98,2.76,2.5,2.76c1.18,0,2.1-0.58,2.56-1.36c0.1-0.16,0.16-0.36,0.16-0.64c0-2.22-0.82-3.92-2.66-3.92
		C35.7,6.78,34.64,8.1,34.64,9.94z"/>
	<path d="M51,7.14h-4.96l-0.5,3.34c0.3-0.04,0.58-0.08,1.06-0.08c1,0,2,0.22,2.8,0.7c1.02,0.58,1.86,1.7,1.86,3.34
		c0,2.54-2.02,4.44-4.84,4.44c-1.42,0-2.62-0.4-3.24-0.8l0.44-1.34c0.54,0.32,1.6,0.72,2.78,0.72c1.66,0,3.08-1.08,3.08-2.82
		c-0.02-1.68-1.14-2.88-3.74-2.88c-0.74,0-1.32,0.08-1.8,0.14l0.84-6.24H51V7.14z"/>
	<path d="M62.15,12.02c0,4.42-1.64,6.86-4.52,6.86c-2.54,0-4.26-2.38-4.3-6.68c0-4.36,1.88-6.76,4.52-6.76
		C60.58,5.44,62.15,7.88,62.15,12.02z M55.08,12.23c0,3.38,1.04,5.3,2.64,5.3c1.8,0,2.66-2.1,2.66-5.42c0-3.2-0.82-5.3-2.64-5.3
		C56.2,6.8,55.08,8.68,55.08,12.23z"/>
	<path d="M71.52,7.14h-4.96l-0.5,3.34c0.3-0.04,0.58-0.08,1.06-0.08c1,0,2,0.22,2.8,0.7c1.02,0.58,1.86,1.7,1.86,3.34
		c0,2.54-2.02,4.44-4.84,4.44c-1.42,0-2.62-0.4-3.24-0.8l0.44-1.34c0.54,0.32,1.6,0.72,2.78,0.72c1.66,0,3.08-1.08,3.08-2.82
		c-0.02-1.68-1.14-2.88-3.74-2.88c-0.74,0-1.32,0.08-1.8,0.14l0.84-6.24h6.22V7.14z"/>
	<path d="M81.78,7.14h-4.96l-0.5,3.34c0.3-0.04,0.58-0.08,1.06-0.08c1,0,2,0.22,2.8,0.7c1.02,0.58,1.86,1.7,1.86,3.34
		c0,2.54-2.02,4.44-4.84,4.44c-1.42,0-2.62-0.4-3.24-0.8l0.44-1.34c0.54,0.32,1.6,0.72,2.78,0.72c1.66,0,3.08-1.08,3.08-2.82
		c-0.02-1.68-1.14-2.88-3.74-2.88c-0.74,0-1.32,0.08-1.8,0.14l0.84-6.24h6.22V7.14z"/>
	<path d="M88.92,12.6v1.3h-4.94v-1.3H88.92z"/>
	<path d="M99.06,12.02c0,4.42-1.64,6.86-4.52,6.86c-2.54,0-4.26-2.38-4.3-6.68c0-4.36,1.88-6.76,4.52-6.76
		C97.5,5.44,99.06,7.88,99.06,12.02z M92,12.23c0,3.38,1.04,5.3,2.64,5.3c1.8,0,2.66-2.1,2.66-5.42c0-3.2-0.82-5.3-2.64-5.3
		C93.12,6.8,92,8.68,92,12.23z"/>
	<path d="M100.68,18.67v-1.08l1.38-1.34c3.32-3.16,4.82-4.84,4.84-6.8c0-1.32-0.64-2.54-2.58-2.54c-1.18,0-2.16,0.6-2.76,1.1
		L101,6.76c0.9-0.76,2.18-1.32,3.68-1.32c2.8,0,3.98,1.92,3.98,3.78c0,2.4-1.74,4.34-4.48,6.98l-1.04,0.96v0.04h5.84v1.46H100.68z"
		/>
	<path d="M115.58,12.6v1.3h-4.94v-1.3H115.58z"/>
	<path d="M125.52,5.66v1.16l-5.66,11.84h-1.82l5.64-11.5V7.12h-6.36V5.66H125.52z"/>
</g>
<line class="st0" x1="6" y1="24.5" x2="26" y2="24.5"/>
<line class="st0" x1="33" y1="24.5" x2="83" y2="24.5"/>
<line class="st0" x1="90" y1="24.5" x2="111" y2="24.5"/>
<line class="st0" x1="117" y1="24.5" x2="126" y2="24.5"/>
<g>
	<path d="M23.32,28.08c0.07,0.35,0.11,0.86,0.11,1.33c0,0.74-0.14,1.22-0.44,1.56c-0.24,0.27-0.61,0.42-1.02,0.42
		c-0.71,0-1.18-0.45-1.38-1.02h-0.02c-0.14,0.42-0.53,0.66-1.09,0.79c-0.75,0.18-1.27,0.3-1.48,0.42v-0.72
		c0.15-0.09,0.62-0.21,1.29-0.36c0.74-0.16,1.02-0.45,1.05-1.08v-0.66h-2.33v-0.7H23.32z M20.87,28.77v0.71
		c0,0.74,0.41,1.21,1.02,1.21c0.7,0,1-0.5,1.01-1.24c0-0.34-0.03-0.58-0.06-0.69H20.87z"/>
	<path d="M19.81,32.78c-0.95,0.02-1.34,0.62-1.34,1.33c0,0.5,0.09,0.81,0.2,1.07l-0.5,0.12c-0.11-0.25-0.24-0.67-0.24-1.29
		c0-1.19,0.78-1.9,1.95-1.9c1.17,0,2.09,0.69,2.09,1.81c0,1.26-1.11,1.6-1.82,1.6c-0.14,0-0.26-0.02-0.33-0.02V32.78z M20.32,34.84
		c0.45,0.01,1.14-0.18,1.14-0.98c0-0.71-0.66-1.02-1.14-1.08V34.84z"/>
	<path d="M21.88,39.73c-0.28-0.02-0.59-0.03-1.06-0.03h-2.25c-0.89,0-1.43-0.18-1.77-0.55c-0.35-0.38-0.46-0.92-0.46-1.41
		c0-0.46,0.11-0.98,0.32-1.29l0.54,0.18c-0.16,0.26-0.3,0.66-0.3,1.14c0,0.72,0.38,1.25,1.35,1.25h0.43V39
		c-0.36-0.22-0.65-0.63-0.65-1.23c0-0.96,0.82-1.65,1.89-1.65c1.31,0,2.06,0.86,2.06,1.74c0,0.67-0.35,1.04-0.67,1.21v0.02
		l0.58,0.03V39.73z M20.35,39c0.12,0,0.22-0.01,0.32-0.04c0.41-0.13,0.74-0.47,0.74-0.98c0-0.67-0.57-1.15-1.46-1.15
		c-0.76,0-1.39,0.38-1.39,1.14c0,0.43,0.27,0.82,0.72,0.98C19.4,38.99,19.53,39,19.65,39H20.35z"/>
	<path d="M18.01,40.82h3.87v0.7h-3.87V40.82z M22.96,41.6c-0.24,0.01-0.43-0.17-0.43-0.45c0-0.25,0.19-0.42,0.43-0.42
		c0.25,0,0.44,0.18,0.44,0.44C23.4,41.44,23.21,41.6,22.96,41.6z"/>
	<path d="M18.73,42.6c-0.14,0.21-0.28,0.58-0.28,0.93c0,0.51,0.26,0.75,0.58,0.75c0.34,0,0.52-0.2,0.71-0.72
		c0.25-0.7,0.63-1.02,1.1-1.02c0.62,0,1.14,0.5,1.14,1.34c0,0.39-0.11,0.74-0.24,0.95l-0.51-0.18c0.1-0.15,0.22-0.43,0.22-0.79
		c0-0.42-0.24-0.65-0.53-0.65c-0.32,0-0.46,0.23-0.66,0.74c-0.26,0.67-0.59,1.02-1.17,1.02c-0.68,0-1.16-0.53-1.16-1.45
		c0-0.42,0.1-0.82,0.26-1.09L18.73,42.6z"/>
	<path d="M22.99,46.71h-1.11v1.01h-0.54v-1.01h-2.09c-0.48,0-0.75,0.14-0.75,0.53c0,0.18,0.02,0.32,0.05,0.41l-0.53,0.03
		c-0.06-0.14-0.1-0.35-0.1-0.62c0-0.33,0.1-0.59,0.3-0.76c0.21-0.2,0.55-0.27,1.01-0.27h2.11v-0.6h0.54v0.6h0.93L22.99,46.71z"/>
	<path d="M20.67,48.51c0.46,0,0.85-0.01,1.21-0.03v0.62l-0.76,0.02v0.03c0.52,0.18,0.85,0.6,0.85,1.07c0,0.08-0.01,0.14-0.02,0.2
		h-0.66c0.02-0.07,0.02-0.14,0.02-0.24c0-0.5-0.38-0.85-0.9-0.94c-0.1-0.02-0.21-0.03-0.33-0.03h-2.06v-0.7H20.67z"/>
	<path d="M18.01,53.23l0.49-0.06v-0.02c-0.3-0.22-0.58-0.63-0.58-1.18c0-0.78,0.55-1.18,1.11-1.18c0.94,0,1.45,0.83,1.44,2.33h0.08
		c0.32,0,0.9-0.09,0.9-0.88c0-0.36-0.11-0.74-0.29-1.01l0.46-0.16c0.21,0.32,0.34,0.78,0.34,1.27c0,1.18-0.81,1.47-1.58,1.47h-1.45
		c-0.34,0-0.66,0.02-0.93,0.06V53.23z M19.98,53.12c0.02-0.77-0.12-1.64-0.87-1.64c-0.46,0-0.67,0.3-0.67,0.66
		c0,0.5,0.32,0.82,0.65,0.94c0.07,0.02,0.15,0.04,0.22,0.04H19.98z"/>
	<path d="M18.01,54.94h3.87v0.7h-3.87V54.94z M22.96,55.72c-0.24,0.01-0.43-0.17-0.43-0.45c0-0.25,0.19-0.42,0.43-0.42
		c0.25,0,0.44,0.18,0.44,0.44C23.4,55.56,23.21,55.72,22.96,55.72z"/>
	<path d="M22.99,57.66h-1.11v1.01h-0.54v-1.01h-2.09c-0.48,0-0.75,0.14-0.75,0.53c0,0.18,0.02,0.32,0.05,0.41l-0.53,0.03
		c-0.06-0.14-0.1-0.35-0.1-0.62c0-0.33,0.1-0.59,0.3-0.76c0.21-0.2,0.55-0.27,1.01-0.27h2.11v-0.6h0.54v0.6h0.93L22.99,57.66z"/>
	<path d="M18.01,59.46h3.87v0.7h-3.87V59.46z M22.96,60.24c-0.24,0.01-0.43-0.17-0.43-0.45c0-0.25,0.19-0.42,0.43-0.42
		c0.25,0,0.44,0.18,0.44,0.44C23.4,60.08,23.21,60.24,22.96,60.24z"/>
	<path d="M19.97,64.84c-1.43,0-2.05-0.99-2.05-1.93c0-1.05,0.77-1.85,1.99-1.85c1.3,0,2.06,0.85,2.06,1.92
		C21.97,64.08,21.16,64.84,19.97,64.84z M19.93,61.77c-0.85,0-1.49,0.49-1.49,1.18c0,0.67,0.63,1.18,1.5,1.18
		c0.66,0,1.49-0.33,1.49-1.16C21.44,62.12,20.67,61.77,19.93,61.77z"/>
	<path d="M20.83,65.72c0.4,0,0.73-0.01,1.05-0.03v0.62l-0.64,0.04v0.02c0.37,0.19,0.73,0.64,0.73,1.28c0,0.54-0.32,1.37-1.65,1.37
		h-2.31v-0.7h2.23c0.62,0,1.14-0.23,1.14-0.9c0-0.46-0.33-0.82-0.72-0.94c-0.09-0.03-0.21-0.05-0.33-0.05h-2.33v-0.7H20.83z"/>
	<path d="M12.28,33.08c-0.28-0.02-0.59-0.03-1.06-0.03H8.97c-0.89,0-1.43-0.18-1.77-0.55c-0.35-0.38-0.46-0.92-0.46-1.41
		c0-0.46,0.11-0.98,0.32-1.29l0.54,0.18c-0.16,0.26-0.3,0.66-0.3,1.14c0,0.72,0.38,1.25,1.35,1.25h0.43v-0.02
		c-0.36-0.22-0.65-0.63-0.65-1.23c0-0.96,0.82-1.65,1.89-1.65c1.31,0,2.06,0.86,2.06,1.74c0,0.67-0.35,1.04-0.67,1.21v0.02
		l0.58,0.03V33.08z M10.75,32.36c0.12,0,0.22-0.01,0.32-0.04c0.41-0.13,0.74-0.47,0.74-0.98c0-0.67-0.57-1.15-1.46-1.15
		c-0.76,0-1.39,0.38-1.39,1.14c0,0.43,0.27,0.82,0.72,0.98c0.12,0.04,0.26,0.06,0.38,0.06H10.75z"/>
	<path d="M11.07,34.17c0.46,0,0.85-0.01,1.21-0.03v0.62l-0.76,0.02v0.03c0.52,0.18,0.85,0.6,0.85,1.07c0,0.08-0.01,0.14-0.02,0.2
		h-0.66c0.02-0.07,0.02-0.14,0.02-0.24c0-0.5-0.38-0.85-0.9-0.94c-0.1-0.02-0.21-0.03-0.33-0.03H8.41v-0.7H11.07z"/>
	<path d="M10.37,40.21c-1.43,0-2.05-0.99-2.05-1.93c0-1.05,0.77-1.85,1.99-1.85c1.3,0,2.06,0.85,2.06,1.92
		C12.37,39.46,11.56,40.21,10.37,40.21z M10.33,37.14c-0.85,0-1.49,0.49-1.49,1.18c0,0.67,0.63,1.18,1.5,1.18
		c0.66,0,1.49-0.33,1.49-1.16C11.84,37.5,11.07,37.14,10.33,37.14z"/>
	<path d="M9.46,44.34c-0.4,0-0.75,0.01-1.06,0.03v-0.62l0.63-0.04v-0.02c-0.31-0.18-0.72-0.59-0.72-1.28c0-0.61,0.34-1.34,1.69-1.34
		h2.26v0.7h-2.14C9.4,41.78,8.9,42,8.9,42.64c0,0.47,0.33,0.8,0.64,0.93c0.1,0.04,0.23,0.06,0.36,0.06h2.37v0.7H9.46z"/>
	<path d="M11.01,45.51c0.5,0,0.9-0.02,1.26-0.03v0.63l-0.66,0.03v0.02c0.47,0.29,0.75,0.74,0.75,1.38c0,0.94-0.79,1.64-1.97,1.64
		c-1.39,0-2.08-0.85-2.08-1.76c0-0.51,0.22-0.96,0.61-1.19V46.2h-2.1v-0.7H11.01z M9.98,46.2c-0.1,0-0.2,0.02-0.29,0.03
		c-0.49,0.13-0.82,0.55-0.82,1.06c0,0.74,0.61,1.18,1.5,1.18c0.78,0,1.44-0.41,1.44-1.15c0-0.48-0.34-0.93-0.87-1.06
		c-0.09-0.02-0.19-0.05-0.29-0.05H9.98z"/>
</g>
<g>
	<path d="M59.32,28.08c0.07,0.35,0.11,0.86,0.11,1.33c0,0.74-0.14,1.22-0.44,1.56c-0.24,0.27-0.61,0.42-1.02,0.42
		c-0.71,0-1.18-0.45-1.38-1.02h-0.02c-0.14,0.42-0.53,0.66-1.09,0.79c-0.75,0.18-1.27,0.3-1.48,0.42v-0.72
		c0.15-0.09,0.62-0.21,1.29-0.36c0.74-0.16,1.02-0.45,1.05-1.08v-0.66h-2.33v-0.7H59.32z M56.87,28.77v0.71
		c0,0.74,0.41,1.21,1.02,1.21c0.7,0,1-0.5,1.01-1.24c0-0.34-0.03-0.58-0.06-0.69H56.87z"/>
	<path d="M55.81,32.78c-0.95,0.02-1.34,0.62-1.34,1.33c0,0.5,0.09,0.81,0.2,1.07l-0.5,0.12c-0.11-0.25-0.24-0.67-0.24-1.29
		c0-1.19,0.78-1.9,1.95-1.9c1.17,0,2.09,0.69,2.09,1.81c0,1.26-1.11,1.6-1.82,1.6c-0.14,0-0.26-0.02-0.33-0.02V32.78z M56.32,34.84
		c0.45,0.01,1.14-0.18,1.14-0.98c0-0.71-0.66-1.02-1.14-1.08V34.84z"/>
	<path d="M57.88,39.73c-0.28-0.02-0.59-0.03-1.06-0.03h-2.25c-0.89,0-1.43-0.18-1.77-0.55c-0.35-0.38-0.46-0.92-0.46-1.41
		c0-0.46,0.11-0.98,0.32-1.29l0.54,0.18c-0.16,0.26-0.3,0.66-0.3,1.14c0,0.72,0.38,1.25,1.35,1.25h0.43V39
		c-0.36-0.22-0.65-0.63-0.65-1.23c0-0.96,0.82-1.65,1.89-1.65c1.31,0,2.06,0.86,2.06,1.74c0,0.67-0.35,1.04-0.67,1.21v0.02
		l0.58,0.03V39.73z M56.35,39c0.12,0,0.22-0.01,0.32-0.04c0.41-0.13,0.74-0.47,0.74-0.98c0-0.67-0.57-1.15-1.46-1.15
		c-0.76,0-1.39,0.38-1.39,1.14c0,0.43,0.27,0.82,0.72,0.98C55.4,38.99,55.53,39,55.65,39H56.35z"/>
	<path d="M54.01,40.82h3.87v0.7h-3.87V40.82z M58.96,41.6c-0.24,0.01-0.43-0.17-0.43-0.45c0-0.25,0.19-0.42,0.43-0.42
		c0.25,0,0.44,0.18,0.44,0.44C59.4,41.44,59.21,41.6,58.96,41.6z"/>
	<path d="M54.73,42.6c-0.14,0.21-0.28,0.58-0.28,0.93c0,0.51,0.26,0.75,0.58,0.75c0.34,0,0.52-0.2,0.71-0.72
		c0.25-0.7,0.63-1.02,1.1-1.02c0.62,0,1.14,0.5,1.14,1.34c0,0.39-0.11,0.74-0.24,0.95l-0.51-0.18c0.1-0.15,0.22-0.43,0.22-0.79
		c0-0.42-0.24-0.65-0.53-0.65c-0.32,0-0.46,0.23-0.66,0.74c-0.26,0.67-0.59,1.02-1.17,1.02c-0.68,0-1.16-0.53-1.16-1.45
		c0-0.42,0.1-0.82,0.26-1.09L54.73,42.6z"/>
	<path d="M58.99,46.71h-1.11v1.01h-0.54v-1.01h-2.09c-0.48,0-0.75,0.14-0.75,0.53c0,0.18,0.02,0.32,0.05,0.41l-0.53,0.03
		c-0.06-0.14-0.1-0.35-0.1-0.62c0-0.33,0.1-0.59,0.3-0.76c0.21-0.2,0.55-0.27,1.01-0.27h2.11v-0.6h0.54v0.6h0.93L58.99,46.71z"/>
	<path d="M56.67,48.51c0.46,0,0.85-0.01,1.21-0.03v0.62l-0.76,0.02v0.03c0.52,0.18,0.85,0.6,0.85,1.07c0,0.08-0.01,0.14-0.02,0.2
		h-0.66c0.02-0.07,0.02-0.14,0.02-0.24c0-0.5-0.38-0.85-0.9-0.94c-0.1-0.02-0.21-0.03-0.33-0.03h-2.06v-0.7H56.67z"/>
	<path d="M54.01,53.23l0.49-0.06v-0.02c-0.3-0.22-0.58-0.63-0.58-1.18c0-0.78,0.55-1.18,1.11-1.18c0.94,0,1.45,0.83,1.44,2.33h0.08
		c0.32,0,0.9-0.09,0.9-0.88c0-0.36-0.11-0.74-0.29-1.01l0.46-0.16c0.21,0.32,0.34,0.78,0.34,1.27c0,1.18-0.81,1.47-1.58,1.47h-1.45
		c-0.34,0-0.66,0.02-0.93,0.06V53.23z M55.98,53.12c0.02-0.77-0.12-1.64-0.87-1.64c-0.46,0-0.67,0.3-0.67,0.66
		c0,0.5,0.32,0.82,0.65,0.94c0.07,0.02,0.15,0.04,0.22,0.04H55.98z"/>
	<path d="M56.83,54.94c0.4,0,0.73-0.01,1.05-0.03v0.62l-0.64,0.04v0.02c0.37,0.19,0.73,0.64,0.73,1.28c0,0.54-0.32,1.37-1.65,1.37
		h-2.31v-0.7h2.23c0.62,0,1.14-0.23,1.14-0.9c0-0.46-0.33-0.82-0.72-0.94c-0.09-0.03-0.21-0.05-0.33-0.05h-2.33v-0.7H56.83z"/>
	<path d="M58.99,60.2h-1.11v1.01h-0.54V60.2h-2.09c-0.48,0-0.75,0.14-0.75,0.53c0,0.18,0.02,0.32,0.05,0.41l-0.53,0.03
		c-0.06-0.14-0.1-0.35-0.1-0.62c0-0.33,0.1-0.59,0.3-0.76c0.21-0.2,0.55-0.27,1.01-0.27h2.11v-0.6h0.54v0.6h0.93L58.99,60.2z"/>
</g>
<g>
	<path d="M103.33,28.08c0.06,0.34,0.1,0.78,0.1,1.33c0,0.69-0.16,1.19-0.45,1.51c-0.26,0.3-0.65,0.47-1.13,0.47
		c-0.49,0-0.87-0.14-1.15-0.42c-0.39-0.37-0.59-0.97-0.59-1.65c0-0.21,0.01-0.4,0.05-0.56h-2.16v-0.7H103.33z M100.73,28.77
		c-0.04,0.15-0.06,0.34-0.06,0.58c0,0.84,0.41,1.35,1.15,1.35c0.71,0,1.06-0.5,1.06-1.27c0-0.3-0.02-0.54-0.06-0.66H100.73z"/>
	<path d="M99.06,35.43c-0.4,0-0.75,0.01-1.06,0.03v-0.62l0.63-0.04v-0.02c-0.31-0.18-0.72-0.59-0.72-1.28
		c0-0.61,0.34-1.34,1.69-1.34h2.26v0.7h-2.14c-0.74,0-1.23,0.22-1.23,0.86c0,0.47,0.33,0.8,0.64,0.93c0.1,0.04,0.23,0.06,0.36,0.06
		h2.38v0.7H99.06z"/>
	<path d="M98.01,36.57c0.26,0.02,0.66,0.03,1,0.03h4.68v0.7h-2.43v0.02c0.43,0.25,0.71,0.7,0.71,1.32c0,0.96-0.8,1.64-1.98,1.63
		c-1.38,0-2.07-0.87-2.07-1.73c0-0.56,0.22-1.01,0.73-1.3v-0.02l-0.64-0.03V36.57z M99.56,37.29c-0.09,0-0.18,0.02-0.26,0.03
		c-0.49,0.14-0.82,0.54-0.82,1.06c0,0.74,0.6,1.18,1.49,1.18c0.78,0,1.44-0.4,1.44-1.15c0-0.48-0.33-0.93-0.86-1.07
		c-0.08-0.02-0.18-0.04-0.29-0.04H99.56z"/>
	<path d="M103.68,41.15v0.7h-5.68v-0.7H103.68z"/>
	<path d="M98.01,43.04h3.87v0.7h-3.87V43.04z M102.96,43.82c-0.24,0.01-0.43-0.17-0.43-0.45c0-0.25,0.19-0.42,0.43-0.42
		c0.25,0,0.44,0.18,0.44,0.44C103.4,43.65,103.21,43.82,102.96,43.82z"/>
	<path d="M98.15,47.67c-0.1-0.18-0.22-0.59-0.22-1.11c0-1.17,0.79-1.93,1.98-1.93c1.19,0,2.05,0.82,2.05,2.08
		c0,0.42-0.1,0.78-0.2,0.98l-0.54-0.16c0.1-0.17,0.18-0.43,0.18-0.82c0-0.89-0.66-1.37-1.46-1.37c-0.9,0-1.45,0.58-1.45,1.34
		c0,0.4,0.1,0.66,0.19,0.86L98.15,47.67z"/>
	<path d="M98.01,50.64l0.49-0.06v-0.02c-0.3-0.22-0.58-0.63-0.58-1.18c0-0.78,0.55-1.18,1.11-1.18c0.94,0,1.45,0.83,1.44,2.33h0.08
		c0.32,0,0.9-0.09,0.9-0.88c0-0.36-0.11-0.74-0.29-1.01l0.46-0.16c0.21,0.32,0.34,0.78,0.34,1.27c0,1.18-0.81,1.47-1.58,1.47h-1.45
		c-0.34,0-0.66,0.02-0.93,0.06V50.64z M99.98,50.53c0.02-0.77-0.12-1.64-0.87-1.64c-0.46,0-0.67,0.3-0.67,0.66
		c0,0.5,0.32,0.82,0.65,0.94c0.07,0.02,0.15,0.04,0.22,0.04H99.98z"/>
	<path d="M102.99,53.16h-1.11v1.01h-0.54v-1.01h-2.09c-0.48,0-0.75,0.14-0.75,0.53c0,0.18,0.02,0.32,0.05,0.41l-0.53,0.03
		c-0.06-0.14-0.1-0.35-0.1-0.62c0-0.33,0.1-0.59,0.3-0.76c0.21-0.2,0.55-0.27,1.01-0.27h2.11v-0.6h0.54v0.6h0.93L102.99,53.16z"/>
	<path d="M98.01,54.96h3.87v0.7h-3.87V54.96z M102.96,55.75c-0.24,0.01-0.43-0.17-0.43-0.45c0-0.25,0.19-0.42,0.43-0.42
		c0.25,0,0.44,0.18,0.44,0.44C103.4,55.58,103.21,55.75,102.96,55.75z"/>
	<path d="M99.97,60.34c-1.43,0-2.05-0.99-2.05-1.93c0-1.05,0.77-1.85,1.99-1.85c1.3,0,2.06,0.85,2.06,1.92
		C101.97,59.59,101.16,60.34,99.97,60.34z M99.93,57.27c-0.85,0-1.49,0.49-1.49,1.18c0,0.67,0.63,1.18,1.5,1.18
		c0.66,0,1.49-0.33,1.49-1.16C101.44,57.63,100.67,57.27,99.93,57.27z"/>
	<path d="M100.83,61.23c0.4,0,0.73-0.01,1.05-0.03v0.62l-0.64,0.04v0.02c0.37,0.19,0.73,0.64,0.73,1.28c0,0.54-0.32,1.37-1.65,1.37
		h-2.31v-0.7h2.23c0.62,0,1.14-0.23,1.14-0.9c0-0.46-0.33-0.82-0.72-0.94c-0.09-0.03-0.21-0.05-0.33-0.05h-2.33v-0.7H100.83z"/>
</g>
<g>
	<path d="M119.18,31.84c-0.13-0.26-0.26-0.77-0.26-1.42c0-1.52,0.96-2.66,2.73-2.66c1.69,0,2.83,1.14,2.83,2.81
		c0,0.67-0.14,1.1-0.24,1.28l-0.57-0.17c0.13-0.26,0.22-0.64,0.22-1.09c0-1.26-0.81-2.1-2.22-2.1c-1.32,0-2.17,0.76-2.17,2.07
		c0,0.42,0.09,0.86,0.22,1.14L119.18,31.84z"/>
	<path d="M124.69,32.69v0.7h-2.41v0.02c0.2,0.11,0.38,0.29,0.5,0.5c0.12,0.21,0.2,0.46,0.2,0.72c0,0.52-0.32,1.35-1.66,1.35h-2.3
		v-0.7h2.22c0.62,0,1.15-0.23,1.15-0.9c0-0.46-0.32-0.82-0.7-0.94c-0.1-0.04-0.2-0.05-0.34-0.05h-2.33v-0.7H124.69z"/>
	<path d="M120.82,37.52c-0.95,0.02-1.34,0.62-1.34,1.33c0,0.5,0.09,0.81,0.2,1.07l-0.5,0.12c-0.11-0.25-0.24-0.67-0.24-1.29
		c0-1.19,0.78-1.9,1.95-1.9c1.17,0,2.09,0.69,2.09,1.81c0,1.26-1.11,1.6-1.82,1.6c-0.14,0-0.26-0.02-0.33-0.02V37.52z M121.32,39.59
		c0.45,0.01,1.14-0.18,1.14-0.98c0-0.71-0.66-1.02-1.14-1.08V39.59z"/>
	<path d="M119.15,43.9c-0.1-0.18-0.22-0.59-0.22-1.11c0-1.17,0.79-1.93,1.98-1.93c1.19,0,2.05,0.82,2.05,2.08
		c0,0.42-0.1,0.78-0.2,0.98l-0.54-0.16c0.1-0.17,0.18-0.43,0.18-0.82c0-0.89-0.66-1.37-1.46-1.37c-0.9,0-1.45,0.58-1.45,1.34
		c0,0.4,0.1,0.66,0.19,0.86L119.15,43.9z"/>
	<path d="M121.1,45.42v0.02c0.14,0.1,0.3,0.23,0.44,0.34l1.34,1.14v0.85l-1.59-1.5l-2.28,1.7v-0.86l1.85-1.33l-0.4-0.36h-1.46v-0.7
		h5.68v0.7H121.1z"/>
	<path d="M124.69,53.52h-4.68c-0.34,0-0.74,0.01-1,0.03v-0.63l0.67-0.03v-0.02c-0.43-0.22-0.76-0.69-0.76-1.32
		c0-0.94,0.79-1.66,1.97-1.66c1.29-0.01,2.08,0.79,2.08,1.74c0,0.59-0.28,0.99-0.59,1.17v0.02h2.31V53.52z M121.3,52.81
		c0.09,0,0.21-0.01,0.3-0.03c0.45-0.1,0.82-0.49,0.82-1.02c0-0.73-0.64-1.16-1.5-1.16c-0.78,0-1.43,0.38-1.43,1.14
		c0,0.47,0.31,0.9,0.84,1.03c0.1,0.02,0.19,0.03,0.3,0.03H121.3z"/>
	<path d="M119.01,54.68h3.87v0.7h-3.87V54.68z M123.97,55.47c-0.24,0.01-0.43-0.17-0.43-0.45c0-0.25,0.19-0.42,0.43-0.42
		c0.25,0,0.44,0.18,0.44,0.44C124.41,55.3,124.21,55.47,123.97,55.47z"/>
	<path d="M122.88,59.89c-0.28-0.02-0.59-0.03-1.06-0.03h-2.25c-0.89,0-1.43-0.18-1.77-0.55c-0.35-0.38-0.46-0.92-0.46-1.41
		c0-0.46,0.11-0.98,0.32-1.29l0.54,0.18c-0.16,0.26-0.3,0.66-0.3,1.14c0,0.72,0.38,1.25,1.35,1.25h0.43v-0.02
		c-0.36-0.22-0.65-0.63-0.65-1.23c0-0.96,0.82-1.65,1.89-1.65c1.31,0,2.06,0.86,2.06,1.74c0,0.67-0.35,1.04-0.67,1.21v0.02
		l0.58,0.03V59.89z M121.35,59.16c0.12,0,0.22-0.01,0.32-0.04c0.41-0.13,0.74-0.47,0.74-0.98c0-0.67-0.57-1.15-1.46-1.15
		c-0.76,0-1.39,0.38-1.39,1.14c0,0.43,0.27,0.82,0.72,0.98c0.12,0.04,0.26,0.06,0.38,0.06H121.35z"/>
	<path d="M119.01,60.98h3.87v0.7h-3.87V60.98z M123.97,61.76c-0.24,0.01-0.43-0.17-0.43-0.45c0-0.25,0.19-0.42,0.43-0.42
		c0.25,0,0.44,0.18,0.44,0.44C124.41,61.6,124.21,61.76,123.97,61.76z"/>
	<path d="M123.99,63.7h-1.11v1.01h-0.54V63.7h-2.09c-0.48,0-0.75,0.14-0.75,0.53c0,0.18,0.02,0.32,0.05,0.41l-0.53,0.03
		c-0.06-0.14-0.1-0.35-0.1-0.62c0-0.33,0.1-0.59,0.3-0.76c0.21-0.2,0.55-0.27,1.01-0.27h2.11v-0.6h0.54v0.6h0.93L123.99,63.7z"/>
</g>
<g>
</g>
<g>
</g>
<g>
</g>
<g>
</g>
<g>
</g>
<g>
</g>
<g>
</g>
<g>
</g>
<g>
</g>
<g>
</g>
<g>
</g>
<g>
</g>
<g>
</g>
<g>
</g>
<g>
</g>
</svg>
