<?xml version="1.0" encoding="utf-8"?>
<!-- Generator: Adobe Illustrator 23.0.0, SVG Export Plug-In . SVG Version: 6.00 Build 0)  -->
<svg version="1.1" id="Layer_1" xmlns="http://www.w3.org/2000/svg" xmlns:xlink="http://www.w3.org/1999/xlink" x="0px" y="0px"
	 viewBox="0 0 420 285" style="enable-background:new 0 0 420 285;" xml:space="preserve">
<style type="text/css">
	.st0{fill:#C1272D;}
	.st1{fill:#009245;}
	.st2{fill:#0071BC;}
	.st3{fill:none;}
	.st4{fill:none;stroke:#000000;stroke-miterlimit:10;}
</style>
<g>
	<path class="st0" d="M180.3,35.58c0,0-0.42-0.09-1.26-0.27s-1.63-0.44-2.37-0.78s-1.4-0.76-1.99-1.24l1.61-2.87
		c0.71,0.58,1.53,1.03,2.46,1.35s1.89,0.48,2.87,0.48c1.13,0,2.01-0.19,2.64-0.58s0.94-0.93,0.94-1.63v-0.01
		c0-0.49-0.14-0.88-0.42-1.17s-0.64-0.5-1.09-0.63s-1.02-0.26-1.73-0.37c-0.03-0.01-0.05-0.01-0.07-0.01s-0.04,0-0.07-0.01
		l-0.28-0.04c-1.24-0.19-2.26-0.44-3.07-0.73s-1.5-0.8-2.07-1.54s-0.85-1.77-0.85-3.12v-0.01c0-1.19,0.27-2.21,0.8-3.06
		s1.31-1.49,2.32-1.94s2.24-0.67,3.68-0.67c0.66,0,1.33,0.08,2.02,0.23s1.36,0.37,2.02,0.66s1.29,0.63,1.88,1.04l-1.47,2.95
		c-0.71-0.49-1.45-0.87-2.23-1.14s-1.52-0.41-2.23-0.41c-1.07,0-1.89,0.18-2.48,0.53s-0.88,0.84-0.88,1.48v0.01
		c0,0.53,0.15,0.95,0.46,1.26s0.68,0.54,1.13,0.68s1.08,0.3,1.89,0.46c0.03,0.01,0.07,0.01,0.1,0.02s0.07,0.01,0.1,0.02
		c0.05,0.01,0.1,0.02,0.15,0.03s0.1,0.02,0.15,0.03c1.17,0.23,2.14,0.51,2.93,0.83s1.44,0.85,1.96,1.57s0.79,1.71,0.79,2.96v0.03
		c0,1.18-0.27,2.18-0.83,3.02s-1.35,1.48-2.41,1.92s-2.32,0.66-3.8,0.66C180.74,35.58,180.3,35.58,180.3,35.58z"/>
	<path class="st0" d="M191.83,16.94h3.48v18.46h-3.48V16.94z M193.35,32.04h5.89c0.8,0,1.41-0.19,1.85-0.58s0.65-0.92,0.65-1.62
		v-0.04c0-0.47-0.1-0.86-0.29-1.19s-0.48-0.58-0.86-0.76s-0.83-0.26-1.35-0.26h-5.89v-3.35h5.89c0.72,0,1.28-0.18,1.67-0.55
		s0.59-0.88,0.59-1.54c0-0.59-0.2-1.05-0.59-1.38s-0.95-0.5-1.67-0.5h-5.89v-3.35h6c1.19,0,2.21,0.2,3.06,0.59s1.49,0.96,1.93,1.71
		s0.66,1.65,0.66,2.7c0,0.72-0.14,1.36-0.43,1.91s-0.7,1.01-1.24,1.36s-1.19,0.6-1.96,0.72c0.81,0.11,1.51,0.36,2.09,0.74
		s1.02,0.89,1.32,1.5s0.45,1.33,0.45,2.15v0.04c0,1.06-0.22,1.96-0.67,2.72s-1.09,1.33-1.94,1.72s-1.87,0.59-3.07,0.59h-6.22V32.04z
		"/>
	<path class="st0" d="M208.61,16.94h4.25l6.87,14.14l-0.3,0.33V16.94h3.33v18.45h-4.28l-6.84-13.93l0.3-0.33v14.26h-3.33V16.94z"/>
</g>
<g>
	<path class="st1" d="M312.17,241.39h-3.61v-18.46h3.61V241.39z"/>
	<path class="st1" d="M320.46,241.58c0,0-0.42-0.09-1.26-0.27c-0.84-0.18-1.63-0.44-2.37-0.78c-0.74-0.34-1.4-0.76-1.99-1.24
		l1.61-2.87c0.71,0.58,1.53,1.03,2.46,1.35s1.89,0.48,2.87,0.48c1.13,0,2.01-0.19,2.64-0.58s0.94-0.93,0.94-1.63v-0.01
		c0-0.49-0.14-0.88-0.42-1.17s-0.64-0.5-1.09-0.63s-1.02-0.26-1.73-0.37c-0.03-0.01-0.05-0.01-0.07-0.01c-0.02,0-0.04,0-0.07-0.01
		l-0.28-0.04c-1.24-0.19-2.26-0.44-3.07-0.73s-1.5-0.8-2.07-1.54s-0.85-1.77-0.85-3.12v-0.01c0-1.19,0.27-2.21,0.8-3.06
		s1.31-1.49,2.32-1.94s2.24-0.67,3.68-0.67c0.66,0,1.33,0.08,2.03,0.23c0.69,0.15,1.36,0.37,2.02,0.66s1.29,0.63,1.88,1.04
		l-1.47,2.95c-0.71-0.49-1.45-0.87-2.23-1.14c-0.78-0.27-1.52-0.41-2.23-0.41c-1.07,0-1.89,0.18-2.48,0.53s-0.88,0.84-0.88,1.48
		v0.01c0,0.53,0.15,0.95,0.46,1.26s0.68,0.54,1.13,0.68s1.08,0.3,1.89,0.46c0.03,0.01,0.07,0.01,0.1,0.02s0.07,0.01,0.1,0.02
		c0.05,0.01,0.1,0.02,0.15,0.03c0.05,0.01,0.09,0.02,0.15,0.03c1.17,0.23,2.14,0.51,2.93,0.83c0.78,0.33,1.44,0.85,1.96,1.57
		s0.79,1.71,0.79,2.96v0.03c0,1.18-0.28,2.18-0.83,3.02s-1.35,1.48-2.41,1.92c-1.05,0.44-2.32,0.66-3.8,0.66
		C320.9,241.58,320.46,241.58,320.46,241.58z"/>
	<path class="st1" d="M331.99,222.94h3.48v18.46h-3.48V222.94z M333.51,238.04h5.89c0.79,0,1.41-0.19,1.85-0.58
		c0.44-0.39,0.65-0.92,0.65-1.62v-0.04c0-0.47-0.1-0.86-0.29-1.19s-0.48-0.58-0.86-0.76c-0.38-0.17-0.83-0.26-1.35-0.26h-5.89v-3.35
		h5.89c0.72,0,1.28-0.18,1.67-0.55c0.39-0.36,0.59-0.88,0.59-1.54c0-0.59-0.2-1.05-0.59-1.38c-0.39-0.33-0.95-0.5-1.67-0.5h-5.89
		v-3.35h6c1.19,0,2.21,0.2,3.06,0.59s1.49,0.96,1.93,1.71s0.66,1.65,0.66,2.7c0,0.72-0.14,1.36-0.43,1.91
		c-0.28,0.55-0.7,1.01-1.24,1.36s-1.19,0.6-1.96,0.72c0.81,0.11,1.51,0.36,2.09,0.74c0.58,0.39,1.02,0.89,1.32,1.5
		c0.3,0.62,0.45,1.33,0.45,2.15v0.04c0,1.06-0.22,1.96-0.67,2.72c-0.44,0.75-1.09,1.33-1.94,1.72c-0.85,0.39-1.87,0.59-3.07,0.59
		h-6.22V238.04z"/>
	<path class="st1" d="M348.77,222.94h4.25l6.87,14.14l-0.3,0.33v-14.47h3.33v18.45h-4.28l-6.84-13.93l0.3-0.33v14.26h-3.33V222.94z"
		/>
	<path class="st1" d="M375.76,233.1v3.35h-9.04v-3.35H375.76z"/>
	<path class="st1" d="M383.65,241.39h-3.48v-14.37l-2.25,0.85v-3.69l2.75-1.24h2.97V241.39z"/>
	<path class="st1" d="M390.81,241.58c0,0-0.44-0.2-1.31-0.61s-1.57-1-2.08-1.78s-0.8-1.71-0.85-2.78h3.59
		c0.05,0.38,0.16,0.7,0.34,0.97c0.17,0.27,0.4,0.47,0.67,0.61s0.58,0.21,0.94,0.21c0.66,0,1.17-0.18,1.53-0.55
		c0.36-0.37,0.54-0.89,0.54-1.56v-0.43c0-0.7-0.15-1.24-0.44-1.63c-0.29-0.38-0.71-0.57-1.25-0.57h-1.56v-3.35h1.56
		c0.44,0,0.78-0.17,1.02-0.5c0.24-0.33,0.36-0.8,0.36-1.4v-0.32c0-0.57-0.13-1-0.4-1.31c-0.27-0.31-0.64-0.46-1.12-0.46
		c-0.31,0-0.6,0.08-0.86,0.24c-0.26,0.16-0.48,0.39-0.65,0.7s-0.3,0.67-0.38,1.1h-3.58c0.1-1.13,0.4-2.1,0.91-2.91
		c0.5-0.82,1.16-1.44,1.97-1.87s1.72-0.64,2.72-0.64c1.63,0,2.9,0.42,3.79,1.25c0.89,0.83,1.34,2.02,1.34,3.55v0.56
		c0,0.85-0.22,1.6-0.65,2.23s-1.05,1.11-1.84,1.42c0.89,0.2,1.58,0.67,2.06,1.4c0.49,0.73,0.73,1.65,0.73,2.78v0.56
		c0,1.07-0.21,1.99-0.63,2.75s-1.04,1.34-1.85,1.74s-1.79,0.6-2.93,0.6C391.36,241.58,390.81,241.58,390.81,241.58z"/>
</g>
<g>
	<path class="st2" d="M21.17,241.39h-3.61v-18.46h3.61V241.39z"/>
	<path class="st2" d="M29.46,241.58c0,0-0.42-0.09-1.26-0.27s-1.63-0.44-2.37-0.78s-1.4-0.76-1.99-1.24l1.61-2.87
		c0.71,0.58,1.53,1.03,2.46,1.35s1.89,0.48,2.87,0.48c1.13,0,2.01-0.19,2.64-0.58s0.94-0.93,0.94-1.63v-0.01
		c0-0.49-0.14-0.88-0.42-1.17s-0.64-0.5-1.09-0.63s-1.02-0.26-1.73-0.37c-0.03-0.01-0.05-0.01-0.07-0.01s-0.04,0-0.07-0.01
		l-0.28-0.04c-1.24-0.19-2.26-0.44-3.07-0.73s-1.5-0.8-2.07-1.54s-0.85-1.77-0.85-3.12v-0.01c0-1.19,0.27-2.21,0.8-3.06
		s1.31-1.49,2.32-1.94s2.24-0.67,3.68-0.67c0.66,0,1.33,0.08,2.02,0.23s1.36,0.37,2.02,0.66s1.29,0.63,1.88,1.04l-1.47,2.95
		c-0.71-0.49-1.45-0.87-2.23-1.14s-1.52-0.41-2.23-0.41c-1.07,0-1.89,0.18-2.48,0.53s-0.88,0.84-0.88,1.48v0.01
		c0,0.53,0.15,0.95,0.46,1.26s0.68,0.54,1.13,0.68s1.08,0.3,1.89,0.46c0.03,0.01,0.07,0.01,0.1,0.02s0.07,0.01,0.1,0.02
		c0.05,0.01,0.1,0.02,0.15,0.03s0.1,0.02,0.15,0.03c1.17,0.23,2.14,0.51,2.93,0.83s1.44,0.85,1.96,1.57s0.79,1.71,0.79,2.96v0.03
		c0,1.18-0.27,2.18-0.83,3.02s-1.35,1.48-2.41,1.92s-2.32,0.66-3.8,0.66C29.9,241.58,29.46,241.58,29.46,241.58z"/>
	<path class="st2" d="M40.99,222.94h3.48v18.46h-3.48V222.94z M42.51,238.04h5.89c0.8,0,1.41-0.19,1.85-0.58s0.65-0.92,0.65-1.62
		v-0.04c0-0.47-0.1-0.86-0.29-1.19s-0.48-0.58-0.86-0.76s-0.83-0.26-1.35-0.26h-5.89v-3.35h5.89c0.72,0,1.28-0.18,1.67-0.55
		s0.59-0.88,0.59-1.54c0-0.59-0.2-1.05-0.59-1.38s-0.95-0.5-1.67-0.5h-5.89v-3.35h6c1.19,0,2.21,0.2,3.06,0.59s1.49,0.96,1.93,1.71
		s0.66,1.65,0.66,2.7c0,0.72-0.14,1.36-0.43,1.91s-0.7,1.01-1.24,1.36s-1.19,0.6-1.96,0.72c0.81,0.11,1.51,0.36,2.09,0.74
		s1.02,0.89,1.32,1.5s0.45,1.33,0.45,2.15v0.04c0,1.06-0.22,1.96-0.67,2.72s-1.09,1.33-1.94,1.72s-1.87,0.59-3.07,0.59h-6.22V238.04
		z"/>
	<path class="st2" d="M57.77,222.94h4.25l6.87,14.14l-0.3,0.33v-14.47h3.33v18.45h-4.28l-6.84-13.93l0.3-0.33v14.26h-3.33V222.94z"
		/>
	<path class="st2" d="M84.76,233.1v3.35h-9.04v-3.35H84.76z"/>
	<path class="st2" d="M92.65,241.39h-3.48v-14.37l-2.25,0.85v-3.69l2.75-1.24h2.97V241.39z"/>
	<path class="st2" d="M97.74,240.19c-0.94-0.93-1.41-2.21-1.41-3.85v-8.39c0-1.66,0.47-2.95,1.42-3.87s2.31-1.38,4.11-1.38
		c1.8,0,3.17,0.46,4.11,1.37s1.41,2.2,1.41,3.87v8.39c0,1.66-0.47,2.95-1.42,3.87s-2.31,1.38-4.11,1.38
		C100.05,241.58,98.68,241.12,97.74,240.19z M103.4,237.52c0.33-0.48,0.5-1.17,0.5-2.06v-6.61c0-0.9-0.17-1.58-0.5-2.06
		s-0.85-0.72-1.55-0.72s-1.22,0.24-1.55,0.72s-0.5,1.17-0.5,2.06v6.61c0,0.9,0.17,1.58,0.5,2.06s0.85,0.72,1.55,0.72
		S103.07,237.99,103.4,237.52z"/>
</g>
<g>
	<path class="st3" d="M88.03,218.98"/>
</g>
<g>
	<g>
		<line class="st4" x1="284.82" y1="231.51" x2="114.62" y2="231.86"/>
		<g>
			<polygon points="283.35,226.53 292,231.5 283.38,236.5 			"/>
		</g>
	</g>
</g>
<g>
	<path d="M89.2,142.33l0.51-0.88l9.01,1.44l-0.86,1.5l-6.06-1.14l4.02,4.67l-0.86,1.5L89.2,142.33z M93.21,146.6l2.24-3.88
		l1.34,0.77l-2.24,3.88L93.21,146.6z"/>
	<path d="M93.45,134.97l0.8-1.39l7.38,4.26l-0.8,1.39L93.45,134.97z M99.38,141.3c-0.33,0.16-0.71,0.21-1.13,0.16
		c-0.42-0.06-0.87-0.22-1.35-0.5l-0.84-0.49c-0.48-0.28-0.86-0.59-1.12-0.93c-0.27-0.34-0.41-0.69-0.44-1.06
		c-0.03-0.37,0.07-0.74,0.28-1.11c0.16-0.28,0.39-0.49,0.7-0.62c0.3-0.13,0.65-0.18,1.04-0.15l1.11,0.78
		c-0.18-0.1-0.35-0.16-0.51-0.17s-0.31,0.02-0.44,0.1s-0.25,0.2-0.34,0.37c-0.15,0.26-0.18,0.51-0.08,0.76
		c0.09,0.25,0.3,0.46,0.62,0.65l0.84,0.48c0.31,0.18,0.6,0.25,0.86,0.21c0.26-0.04,0.46-0.2,0.61-0.46c0.1-0.17,0.15-0.33,0.15-0.48
		s-0.04-0.3-0.13-0.43c-0.09-0.13-0.22-0.25-0.39-0.35l1.24,0.62c0.22,0.27,0.35,0.57,0.38,0.88c0.03,0.31-0.05,0.63-0.22,0.93
		C99.98,140.87,99.71,141.14,99.38,141.3z"/>
	<path d="M96.69,129.37l0.8-1.39l7.38,4.26l-0.8,1.39L96.69,129.37z M102.61,135.7c-0.33,0.16-0.71,0.21-1.13,0.16
		s-0.87-0.23-1.35-0.5l-0.84-0.49c-0.48-0.28-0.86-0.59-1.12-0.93c-0.27-0.34-0.41-0.69-0.44-1.06c-0.03-0.37,0.07-0.74,0.28-1.11
		c0.16-0.28,0.39-0.49,0.7-0.62c0.3-0.13,0.65-0.18,1.04-0.15l1.11,0.78c-0.18-0.1-0.35-0.16-0.51-0.17s-0.31,0.02-0.44,0.1
		s-0.25,0.2-0.34,0.37c-0.15,0.26-0.18,0.51-0.08,0.76c0.09,0.25,0.3,0.46,0.62,0.65l0.84,0.48c0.31,0.18,0.6,0.25,0.86,0.21
		c0.26-0.04,0.46-0.2,0.61-0.46c0.1-0.17,0.15-0.33,0.15-0.48s-0.04-0.3-0.13-0.43c-0.09-0.13-0.22-0.25-0.39-0.35l1.24,0.62
		c0.22,0.27,0.35,0.57,0.38,0.88c0.03,0.31-0.05,0.63-0.22,0.93C103.22,135.27,102.94,135.54,102.61,135.7z"/>
	<path d="M101.42,126.05l0.8-1.39l7.41,4.28l-0.8,1.39L101.42,126.05z M107.57,127.19c-0.29,0.13-0.61,0.17-0.96,0.11l-1.16-0.77
		c0.17,0.1,0.34,0.15,0.49,0.16c0.16,0.01,0.3-0.03,0.43-0.11c0.13-0.08,0.25-0.2,0.34-0.37c0.15-0.26,0.18-0.51,0.09-0.76
		c-0.09-0.24-0.29-0.46-0.61-0.64l-0.84-0.48c-0.32-0.19-0.61-0.26-0.87-0.22c-0.26,0.04-0.46,0.19-0.62,0.45
		c-0.1,0.17-0.14,0.33-0.15,0.48s0.04,0.3,0.13,0.43c0.09,0.13,0.22,0.25,0.4,0.35l-1.23-0.57c-0.23-0.32-0.36-0.64-0.39-0.97
		c-0.03-0.33,0.03-0.63,0.19-0.91c0.21-0.37,0.49-0.64,0.82-0.8c0.33-0.16,0.71-0.21,1.14-0.15c0.42,0.06,0.88,0.23,1.36,0.51
		l0.84,0.49c0.48,0.28,0.85,0.58,1.11,0.92s0.4,0.69,0.43,1.06s-0.07,0.74-0.28,1.11C108.09,126.83,107.86,127.05,107.57,127.19z"/>
	<path d="M104.68,120.4l0.86-1.49l5.27,3.04l-0.86,1.49L104.68,120.4z M107.56,118.44c-0.09,0.08-0.17,0.18-0.25,0.31
		c-0.16,0.28-0.2,0.55-0.1,0.81s0.3,0.48,0.62,0.67l-1.43-0.68c-0.23-0.33-0.37-0.66-0.41-0.99c-0.04-0.33,0.02-0.64,0.18-0.91
		c0.13-0.22,0.28-0.4,0.45-0.54c0.17-0.14,0.36-0.23,0.57-0.29l0.66,1.47C107.75,118.31,107.65,118.37,107.56,118.44z"/>
	<path d="M113.39,117.66c0,0-0.2,0.13-0.59,0.38c-0.39,0.25-0.82,0.37-1.28,0.36s-0.94-0.17-1.44-0.45l-0.59-0.34
		c-0.52-0.3-0.91-0.65-1.18-1.04c-0.26-0.39-0.39-0.82-0.38-1.28s0.15-0.93,0.44-1.42c0.27-0.46,0.61-0.79,1.03-0.98
		c0.42-0.2,0.9-0.25,1.43-0.17c0.54,0.08,1.11,0.3,1.73,0.66l0.34,0.2l-2.08,3.6l-0.94-0.54l1.35-2.33l-0.13-0.06
		c-0.33-0.14-0.62-0.18-0.87-0.12c-0.26,0.06-0.46,0.22-0.61,0.47c-0.19,0.33-0.24,0.65-0.15,0.95c0.09,0.3,0.32,0.55,0.69,0.77
		l0.67,0.39c0.36,0.21,0.7,0.27,1.01,0.18c0.31-0.09,0.57-0.31,0.78-0.67c0.11-0.19,0.18-0.39,0.22-0.61s0.04-0.44,0.01-0.66
		l1.33-0.44c0.09,0.42,0.11,0.84,0.05,1.26c-0.06,0.42-0.19,0.81-0.39,1.15C113.53,117.4,113.39,117.66,113.39,117.66z"/>
	<path d="M109.77,109.93c-0.47-0.27-0.75-0.58-0.86-0.93s-0.03-0.75,0.23-1.19l0.56-0.96l1.24,0.71l-0.34,0.59
		c-0.06,0.1-0.06,0.19-0.02,0.29s0.13,0.17,0.25,0.24l5.74,3.31l-0.8,1.39L109.77,109.93z M110.16,110.9l1.64-2.84l1.19,0.69
		l-1.64,2.84L110.16,110.9z"/>
	<path d="M110.23,105.91l0.8-1.39l1.39,0.8l-0.8,1.39L110.23,105.91z M112.34,107.13l0.8-1.39l5.27,3.04l-0.8,1.39L112.34,107.13z"
		/>
	<path d="M117.91,104.62l-4.27,0.25l0.88-1.53l2.86-0.04l4.33-0.25l-0.88,1.53L117.91,104.62z M116.83,103.67l-1.3-2.05l0.88-1.53
		l1.87,3.33L116.83,103.67z M117.03,104.45l1.43-0.28l1.25,2.34l-0.85,1.48L117.03,104.45z"/>
	<path d="M123.1,99.54c-0.59,0.16-1.21,0.05-1.87-0.33l-3.35-1.94c-0.66-0.38-1.07-0.87-1.22-1.46c-0.15-0.59-0.02-1.24,0.4-1.96
		c0.42-0.72,0.91-1.16,1.5-1.33s1.21-0.05,1.87,0.33l3.35,1.94c0.66,0.38,1.07,0.87,1.22,1.46c0.15,0.59,0.02,1.24-0.4,1.96
		C124.19,98.94,123.69,99.38,123.1,99.54z M123.34,96.66c-0.11-0.24-0.35-0.47-0.71-0.67l-2.64-1.53c-0.36-0.21-0.67-0.3-0.94-0.28
		c-0.27,0.02-0.48,0.17-0.64,0.45s-0.19,0.54-0.07,0.78c0.12,0.24,0.35,0.47,0.71,0.67l2.64,1.53c0.36,0.21,0.67,0.3,0.94,0.28
		c0.27-0.02,0.48-0.17,0.64-0.45S123.45,96.9,123.34,96.66z"/>
</g>
<g>
	<path d="M169,243.72h1.02l3.26,8.52h-1.73l-2.04-5.82l-2.04,5.82h-1.73L169,243.72z M167.3,249.33h4.48v1.55h-4.48V249.33z"/>
	<path d="M174.98,252.02c-0.31-0.21-0.54-0.51-0.7-0.9s-0.24-0.87-0.24-1.42v-0.97c0-0.56,0.08-1.04,0.24-1.44s0.39-0.7,0.7-0.91
		s0.67-0.31,1.1-0.31c0.32,0,0.62,0.1,0.89,0.29s0.48,0.47,0.65,0.82l-0.12,1.35c0-0.21-0.04-0.38-0.11-0.53s-0.17-0.25-0.31-0.33
		s-0.3-0.11-0.49-0.11c-0.3,0-0.53,0.1-0.7,0.31s-0.25,0.49-0.25,0.86v0.97c0,0.36,0.08,0.64,0.25,0.84s0.4,0.3,0.7,0.3
		c0.19,0,0.35-0.04,0.49-0.11s0.24-0.18,0.31-0.32s0.11-0.31,0.11-0.51l0.08,1.39c-0.13,0.33-0.32,0.59-0.57,0.77
		s-0.56,0.27-0.92,0.27C175.65,252.33,175.28,252.22,174.98,252.02z M177.49,243.72h1.61v8.52h-1.61V243.72z"/>
	<path d="M181.44,252.02c-0.31-0.21-0.54-0.51-0.7-0.9s-0.24-0.87-0.24-1.42v-0.97c0-0.56,0.08-1.04,0.24-1.44s0.39-0.7,0.7-0.91
		s0.67-0.31,1.1-0.31c0.32,0,0.62,0.1,0.89,0.29s0.48,0.47,0.65,0.82l-0.12,1.35c0-0.21-0.04-0.38-0.11-0.53s-0.17-0.25-0.31-0.33
		s-0.3-0.11-0.49-0.11c-0.3,0-0.53,0.1-0.7,0.31s-0.25,0.49-0.25,0.86v0.97c0,0.36,0.08,0.64,0.25,0.84s0.4,0.3,0.7,0.3
		c0.19,0,0.35-0.04,0.49-0.11s0.24-0.18,0.31-0.32s0.11-0.31,0.11-0.51l0.08,1.39c-0.13,0.33-0.32,0.59-0.57,0.77
		s-0.56,0.27-0.92,0.27C182.12,252.33,181.75,252.22,181.44,252.02z M183.96,243.72h1.61v8.52h-1.61V243.72z"/>
	<path d="M189.2,246.16h1.61v8.55h-1.61V246.16z M191.3,252.06c-0.26-0.18-0.45-0.44-0.57-0.77l0.08-1.39c0,0.2,0.04,0.37,0.11,0.51
		s0.17,0.25,0.31,0.32s0.3,0.11,0.49,0.11c0.3,0,0.53-0.1,0.7-0.3s0.25-0.48,0.25-0.84v-0.97c0-0.37-0.08-0.66-0.25-0.86
		s-0.4-0.31-0.7-0.31c-0.19,0-0.35,0.04-0.49,0.11s-0.24,0.19-0.31,0.33s-0.11,0.32-0.11,0.53l-0.12-1.35
		c0.16-0.36,0.38-0.63,0.65-0.82s0.56-0.29,0.89-0.29c0.43,0,0.8,0.1,1.1,0.31s0.54,0.51,0.7,0.91s0.24,0.88,0.24,1.44v0.97
		c0,0.55-0.08,1.03-0.24,1.42s-0.39,0.69-0.7,0.9s-0.67,0.31-1.1,0.31C191.86,252.33,191.55,252.24,191.3,252.06z"/>
	<path d="M195.73,246.16h1.72v6.08h-1.72V246.16z M198.86,247.68c-0.11-0.04-0.24-0.06-0.39-0.06c-0.32,0-0.58,0.1-0.75,0.31
		s-0.27,0.5-0.27,0.87l-0.12-1.58c0.17-0.36,0.39-0.65,0.65-0.85s0.56-0.3,0.88-0.3c0.25,0,0.48,0.04,0.69,0.12s0.38,0.2,0.54,0.35
		l-0.94,1.31C199.07,247.77,198.97,247.71,198.86,247.68z"/>
	<path d="M202.46,252.33c0,0-0.21-0.11-0.62-0.32s-0.73-0.52-0.95-0.93s-0.33-0.9-0.33-1.47v-0.69c0-0.6,0.1-1.12,0.31-1.54
		s0.51-0.75,0.91-0.97s0.88-0.33,1.45-0.33c0.53,0,0.99,0.13,1.37,0.4s0.67,0.65,0.86,1.16s0.3,1.12,0.3,1.83v0.4h-4.16v-1.08h2.7
		l-0.02-0.14c-0.04-0.35-0.15-0.62-0.33-0.81s-0.42-0.29-0.71-0.29c-0.39,0-0.69,0.12-0.9,0.35s-0.32,0.56-0.32,0.98v0.77
		c0,0.41,0.12,0.73,0.35,0.96s0.56,0.34,0.98,0.34c0.21,0,0.43-0.04,0.64-0.11s0.4-0.18,0.57-0.33l1.05,0.93
		c-0.32,0.29-0.67,0.51-1.07,0.67s-0.79,0.24-1.2,0.24C202.75,252.33,202.46,252.33,202.46,252.33z"/>
	<path d="M206.7,246.16h3.28v1.37h-3.28V246.16z M207.34,245.33c0-0.54,0.12-0.94,0.37-1.21s0.63-0.4,1.15-0.4h1.11v1.43h-0.68
		c-0.11,0-0.2,0.04-0.26,0.13s-0.09,0.2-0.09,0.33v6.63h-1.61V245.33z"/>
	<path d="M211.05,243.72h1.61v1.61h-1.61V243.72z M211.05,246.16h1.61v6.08h-1.61V246.16z"/>
	<path d="M215.72,248.88l0.96,1.1l-1.4,2.26h-1.71L215.72,248.88z M216.01,249.73l-2.35-3.57h1.77l1.46,2.46l2.38,3.63h-1.76
		L216.01,249.73z M216.29,248.31l1.13-2.16h1.77l-1.95,3.28L216.29,248.31z"/>
	<path d="M225.19,248.01l0.29,0.21c-0.1,0.18-0.25,0.31-0.44,0.4s-0.43,0.13-0.7,0.13c-0.43,0-0.81-0.1-1.13-0.31
		s-0.58-0.5-0.76-0.88s-0.27-0.81-0.27-1.31v-0.01c0-0.55,0.1-1.02,0.29-1.41s0.48-0.69,0.85-0.89s0.82-0.3,1.35-0.3
		c0.52,0,0.97,0.1,1.34,0.31s0.66,0.51,0.85,0.9s0.29,0.87,0.29,1.42v0.01c0,0.29-0.04,0.59-0.12,0.92s-0.2,0.69-0.35,1.07
		c-0.02,0.05-0.04,0.11-0.06,0.16s-0.04,0.11-0.07,0.16l-1.52,3.65h-1.7L225.19,248.01z M225.33,246.97
		c0.15-0.18,0.23-0.44,0.23-0.77v-0.01c0-0.32-0.08-0.57-0.23-0.74s-0.37-0.26-0.65-0.26c-0.29,0-0.5,0.09-0.66,0.26
		s-0.23,0.42-0.23,0.74v0.01c0,0.33,0.08,0.59,0.23,0.77s0.37,0.27,0.66,0.27C224.95,247.24,225.17,247.15,225.33,246.97z"/>
	<path d="M233.14,244.79l-1.91,7.45h-1.74l1.85-6.97h-1.46v1.28h-1.61v-2.83h4.87V244.79z"/>
	<path d="M235.74,252.04c-0.41-0.2-0.72-0.47-0.95-0.83s-0.33-0.77-0.33-1.25v-0.14c0-0.43,0.12-0.83,0.35-1.2s0.55-0.66,0.94-0.85
		c-0.34-0.16-0.61-0.4-0.81-0.7s-0.3-0.63-0.3-0.97v-0.22c0-0.45,0.1-0.84,0.31-1.17s0.5-0.6,0.88-0.79s0.82-0.28,1.33-0.28
		s0.95,0.09,1.33,0.28s0.68,0.45,0.88,0.79s0.31,0.73,0.31,1.17v0.22c0,0.35-0.1,0.68-0.31,0.98s-0.48,0.53-0.82,0.69
		c0.39,0.2,0.71,0.48,0.95,0.85s0.36,0.77,0.36,1.2v0.14c0,0.47-0.11,0.89-0.33,1.25s-0.54,0.63-0.95,0.83s-0.88,0.29-1.42,0.29
		S236.15,252.23,235.74,252.04z M237.74,250.65c0.17-0.09,0.29-0.21,0.39-0.37s0.14-0.34,0.14-0.55v-0.08c0-0.19-0.05-0.36-0.14-0.5
		s-0.22-0.26-0.38-0.34s-0.36-0.12-0.57-0.12s-0.41,0.04-0.57,0.12s-0.29,0.19-0.38,0.34s-0.14,0.32-0.14,0.51v0.09
		c0,0.21,0.05,0.39,0.14,0.55s0.22,0.28,0.39,0.37s0.36,0.13,0.57,0.13S237.57,250.74,237.74,250.65z M237.65,247
		c0.14-0.08,0.25-0.19,0.32-0.34s0.11-0.32,0.11-0.51v-0.08c0-0.18-0.04-0.34-0.11-0.47s-0.18-0.24-0.32-0.31s-0.3-0.11-0.48-0.11
		s-0.34,0.04-0.48,0.11s-0.25,0.18-0.32,0.32s-0.11,0.29-0.11,0.47v0.09c0,0.19,0.04,0.35,0.11,0.5s0.18,0.26,0.32,0.34
		s0.3,0.12,0.48,0.12S237.51,247.08,237.65,247z"/>
	<path d="M123.88,261.97v1.49h-4.99v-1.49H123.88z M122.16,265.09h-1.55v-4.76h1.55V265.09z"/>
	<path d="M127.4,260.56h1.72v6.08h-1.72V260.56z M130.53,262.08c-0.11-0.04-0.24-0.06-0.39-0.06c-0.32,0-0.58,0.1-0.75,0.31
		s-0.27,0.5-0.27,0.87l-0.12-1.58c0.17-0.36,0.39-0.65,0.65-0.85s0.56-0.3,0.88-0.3c0.25,0,0.48,0.04,0.69,0.12s0.38,0.2,0.54,0.35
		l-0.94,1.31C130.74,262.17,130.65,262.11,130.53,262.08z"/>
	<path d="M134.13,266.73c0,0-0.21-0.11-0.62-0.32s-0.73-0.52-0.95-0.93s-0.33-0.9-0.33-1.47v-0.69c0-0.6,0.1-1.12,0.31-1.54
		s0.51-0.75,0.91-0.97s0.88-0.33,1.45-0.33c0.53,0,0.99,0.13,1.37,0.4s0.67,0.65,0.86,1.16s0.3,1.12,0.3,1.83v0.4h-4.16v-1.08h2.7
		l-0.02-0.14c-0.04-0.35-0.15-0.62-0.33-0.81s-0.42-0.29-0.71-0.29c-0.39,0-0.69,0.12-0.9,0.35s-0.32,0.56-0.32,0.98v0.77
		c0,0.41,0.12,0.73,0.35,0.96s0.56,0.34,0.98,0.34c0.21,0,0.43-0.04,0.64-0.11s0.4-0.18,0.57-0.33l1.05,0.93
		c-0.32,0.29-0.67,0.51-1.07,0.67s-0.79,0.24-1.2,0.24C134.42,266.73,134.13,266.73,134.13,266.73z"/>
	<path d="M140.54,266.73c0,0-0.21-0.11-0.62-0.33s-0.73-0.54-0.94-0.96s-0.32-0.93-0.32-1.52v-0.65c0-0.59,0.11-1.09,0.32-1.51
		s0.53-0.73,0.94-0.95s0.91-0.33,1.49-0.33c0.33,0,0.65,0.04,0.94,0.11s0.56,0.19,0.79,0.33s0.43,0.32,0.59,0.53l-1.04,1.01
		c-0.15-0.14-0.32-0.24-0.52-0.32s-0.41-0.11-0.63-0.11c-0.41,0-0.72,0.11-0.94,0.33s-0.33,0.52-0.33,0.92v0.65
		c0,0.41,0.11,0.72,0.33,0.94s0.54,0.33,0.94,0.33c0.22,0,0.43-0.04,0.63-0.12s0.37-0.2,0.52-0.35l1.04,1.07
		c-0.16,0.2-0.36,0.38-0.59,0.52s-0.5,0.25-0.79,0.33s-0.61,0.11-0.94,0.11C140.83,266.73,140.54,266.73,140.54,266.73z"/>
	<path d="M145,266.26c-0.32-0.31-0.48-0.78-0.48-1.42c0-0.6,0.18-1.05,0.54-1.35s0.9-0.45,1.63-0.45h1.52l0.08,1.22h-1.6
		c-0.24,0-0.42,0.05-0.54,0.14s-0.18,0.24-0.18,0.44c0,0.2,0.08,0.35,0.23,0.44s0.38,0.14,0.69,0.14c0.43,0,0.75-0.05,0.96-0.15
		s0.31-0.25,0.31-0.46l0.12,0.88c-0.02,0.22-0.12,0.4-0.3,0.56s-0.4,0.27-0.67,0.34s-0.55,0.11-0.85,0.11
		C145.81,266.73,145.32,266.57,145,266.26z M148.16,262.78c0-0.28-0.09-0.5-0.28-0.65s-0.45-0.23-0.8-0.23
		c-0.23,0-0.45,0.04-0.67,0.11s-0.42,0.18-0.59,0.31l-1-0.98c0.24-0.28,0.56-0.49,0.96-0.65s0.84-0.23,1.32-0.23
		c0.53,0,0.98,0.09,1.36,0.27s0.66,0.44,0.86,0.77s0.3,0.75,0.3,1.22v3.91h-1.46V262.78z"/>
	<path d="M152.8,264.63c0,0.15,0.04,0.26,0.13,0.34s0.2,0.12,0.36,0.12h0.27v1.55h-0.82c-0.49,0-0.87-0.14-1.14-0.42
		s-0.4-0.68-0.4-1.19v-6.91h1.61V264.63z"/>
	<path d="M156.38,266.73c0,0-0.21-0.11-0.62-0.33s-0.73-0.54-0.94-0.96s-0.32-0.93-0.32-1.52v-0.65c0-0.59,0.11-1.09,0.32-1.51
		s0.53-0.73,0.94-0.95s0.91-0.33,1.49-0.33c0.33,0,0.65,0.04,0.94,0.11s0.56,0.19,0.79,0.33s0.43,0.32,0.59,0.53l-1.04,1.01
		c-0.15-0.14-0.32-0.24-0.52-0.32s-0.41-0.11-0.63-0.11c-0.41,0-0.72,0.11-0.94,0.33s-0.33,0.52-0.33,0.92v0.65
		c0,0.41,0.11,0.72,0.33,0.94s0.54,0.33,0.94,0.33c0.22,0,0.43-0.04,0.63-0.12s0.37-0.2,0.52-0.35l1.04,1.07
		c-0.16,0.2-0.36,0.38-0.59,0.52s-0.5,0.25-0.79,0.33s-0.61,0.11-0.94,0.11C156.67,266.73,156.38,266.73,156.38,266.73z"/>
	<path d="M162.11,264.26c0,0.29,0.08,0.52,0.25,0.68s0.4,0.24,0.7,0.24s0.53-0.08,0.69-0.25s0.24-0.4,0.24-0.71l0.08,1.33
		c-0.11,0.33-0.3,0.61-0.57,0.84s-0.58,0.34-0.96,0.34c-0.65,0-1.16-0.21-1.51-0.63s-0.53-1.01-0.53-1.78v-3.76h1.61V264.26z
		 M164,260.56h1.6v6.08H164V260.56z"/>
	<path d="M168.78,264.63c0,0.15,0.04,0.26,0.13,0.34s0.2,0.12,0.36,0.12h0.27v1.55h-0.82c-0.49,0-0.87-0.14-1.14-0.42
		s-0.4-0.68-0.4-1.19v-6.91h1.61V264.63z"/>
	<path d="M170.78,266.26c-0.32-0.31-0.48-0.78-0.48-1.42c0-0.6,0.18-1.05,0.54-1.35s0.9-0.45,1.63-0.45h1.52l0.08,1.22h-1.6
		c-0.24,0-0.42,0.05-0.54,0.14s-0.18,0.24-0.18,0.44c0,0.2,0.08,0.35,0.23,0.44s0.38,0.14,0.69,0.14c0.43,0,0.75-0.05,0.96-0.15
		s0.31-0.25,0.31-0.46l0.12,0.88c-0.02,0.22-0.12,0.4-0.3,0.56s-0.4,0.27-0.67,0.34s-0.55,0.11-0.85,0.11
		C171.59,266.73,171.11,266.57,170.78,266.26z M173.94,262.78c0-0.28-0.09-0.5-0.28-0.65s-0.45-0.23-0.8-0.23
		c-0.23,0-0.45,0.04-0.67,0.11s-0.42,0.18-0.59,0.31l-1-0.98c0.24-0.28,0.56-0.49,0.96-0.65s0.84-0.23,1.32-0.23
		c0.53,0,0.98,0.09,1.36,0.27s0.66,0.44,0.86,0.77s0.3,0.75,0.3,1.22v3.91h-1.46V262.78z"/>
	<path d="M176.51,260.56h2.98v1.37h-2.98V260.56z M177.51,266.26c-0.25-0.27-0.37-0.67-0.37-1.2v-6.27h1.61v5.87
		c0,0.15,0.03,0.26,0.09,0.34s0.14,0.12,0.26,0.12h0.4v1.55h-0.81C178.15,266.67,177.76,266.53,177.51,266.26z"/>
	<path d="M182.62,266.73c0,0-0.21-0.11-0.62-0.32s-0.73-0.52-0.95-0.93s-0.33-0.9-0.33-1.47v-0.69c0-0.6,0.1-1.12,0.31-1.54
		s0.51-0.75,0.91-0.97s0.88-0.33,1.45-0.33c0.53,0,0.99,0.13,1.37,0.4s0.67,0.65,0.86,1.16s0.3,1.12,0.3,1.83v0.4h-4.16v-1.08h2.7
		l-0.02-0.14c-0.04-0.35-0.15-0.62-0.33-0.81s-0.42-0.29-0.71-0.29c-0.39,0-0.69,0.12-0.9,0.35s-0.32,0.56-0.32,0.98v0.77
		c0,0.41,0.12,0.73,0.35,0.96s0.56,0.34,0.98,0.34c0.21,0,0.43-0.04,0.64-0.11s0.4-0.18,0.57-0.33l1.05,0.93
		c-0.32,0.29-0.67,0.51-1.07,0.67s-0.79,0.24-1.2,0.24C182.92,266.73,182.62,266.73,182.62,266.73z"/>
	<path d="M191.04,266.64h-1.66v-8.52h1.66V266.64z"/>
	<path d="M194.87,266.73c0,0-0.19-0.04-0.58-0.12s-0.75-0.2-1.1-0.36s-0.65-0.35-0.92-0.57l0.74-1.32c0.33,0.27,0.71,0.48,1.14,0.62
		s0.87,0.22,1.32,0.22c0.52,0,0.93-0.09,1.22-0.27s0.43-0.43,0.43-0.75v-0.01c0-0.23-0.06-0.41-0.19-0.54s-0.3-0.23-0.5-0.29
		s-0.47-0.12-0.8-0.17c-0.01,0-0.02-0.01-0.03-0.01s-0.02,0-0.03-0.01l-0.13-0.02c-0.57-0.09-1.04-0.2-1.42-0.34
		s-0.69-0.37-0.96-0.71s-0.39-0.82-0.39-1.44v-0.01c0-0.55,0.12-1.02,0.37-1.41s0.6-0.69,1.07-0.89s1.04-0.31,1.7-0.31
		c0.3,0,0.62,0.04,0.93,0.11s0.63,0.17,0.93,0.3s0.59,0.29,0.87,0.48l-0.68,1.36c-0.33-0.23-0.67-0.4-1.03-0.53s-0.7-0.19-1.03-0.19
		c-0.49,0-0.87,0.08-1.14,0.24s-0.4,0.39-0.4,0.68v0.01c0,0.25,0.07,0.44,0.21,0.58s0.31,0.25,0.52,0.31s0.5,0.14,0.87,0.21
		c0.02,0,0.03,0.01,0.05,0.01s0.03,0,0.05,0.01c0.02,0,0.05,0.01,0.07,0.01s0.04,0.01,0.07,0.01c0.54,0.11,0.99,0.23,1.35,0.38
		s0.66,0.39,0.91,0.73s0.36,0.79,0.36,1.37v0.01c0,0.54-0.13,1.01-0.38,1.39s-0.62,0.68-1.11,0.88s-1.07,0.3-1.75,0.3
		C195.07,266.73,194.87,266.73,194.87,266.73z"/>
	<path d="M200.19,258.12h1.61v8.52h-1.61V258.12z M200.89,265.09h2.72c0.37,0,0.65-0.09,0.85-0.27s0.3-0.43,0.3-0.75v-0.02
		c0-0.21-0.04-0.4-0.13-0.55s-0.22-0.27-0.4-0.35s-0.38-0.12-0.62-0.12h-2.72v-1.55h2.72c0.33,0,0.59-0.08,0.77-0.25
		s0.27-0.4,0.27-0.71c0-0.27-0.09-0.49-0.27-0.64s-0.44-0.23-0.77-0.23h-2.72v-1.55h2.77c0.55,0,1.02,0.09,1.41,0.27
		s0.69,0.45,0.89,0.79s0.3,0.76,0.3,1.25c0,0.33-0.07,0.63-0.2,0.88s-0.32,0.47-0.57,0.63s-0.55,0.28-0.9,0.33
		c0.38,0.05,0.7,0.17,0.96,0.34s0.47,0.41,0.61,0.69s0.21,0.62,0.21,0.99v0.02c0,0.49-0.1,0.91-0.31,1.25s-0.5,0.61-0.9,0.79
		s-0.86,0.27-1.42,0.27h-2.87V265.09z"/>
	<path d="M207.93,258.12h1.96l3.17,6.53l-0.14,0.15v-6.68h1.54v8.51h-1.97l-3.16-6.43l0.14-0.15v6.58h-1.54V258.12z"/>
	<path d="M220.39,262.81v1.55h-4.17v-1.55H220.39z"/>
	<path d="M224.03,266.64h-1.61v-6.63l-1.04,0.39v-1.71l1.27-0.57h1.37V266.64z"/>
	<path d="M227.33,266.73c0,0-0.2-0.09-0.6-0.28s-0.72-0.46-0.96-0.82s-0.37-0.79-0.39-1.28h1.66c0.02,0.18,0.08,0.33,0.16,0.45
		s0.18,0.22,0.31,0.28s0.27,0.1,0.43,0.1c0.3,0,0.54-0.08,0.71-0.25s0.25-0.41,0.25-0.72V264c0-0.32-0.07-0.57-0.2-0.75
		s-0.33-0.26-0.58-0.26h-0.72v-1.55h0.72c0.2,0,0.36-0.08,0.47-0.23s0.17-0.37,0.17-0.65v-0.15c0-0.26-0.06-0.46-0.18-0.61
		s-0.3-0.21-0.52-0.21c-0.14,0-0.28,0.04-0.4,0.11s-0.22,0.18-0.3,0.32s-0.14,0.31-0.18,0.51h-1.65c0.05-0.52,0.19-0.97,0.42-1.34
		s0.54-0.66,0.91-0.86s0.79-0.3,1.25-0.3c0.75,0,1.34,0.19,1.75,0.58s0.62,0.93,0.62,1.64v0.26c0,0.39-0.1,0.74-0.3,1.03
		s-0.48,0.51-0.85,0.66c0.41,0.09,0.73,0.31,0.95,0.64s0.34,0.76,0.34,1.28v0.26c0,0.5-0.1,0.92-0.29,1.27s-0.48,0.62-0.86,0.8
		s-0.83,0.28-1.35,0.28C227.59,266.73,227.33,266.73,227.33,266.73z"/>
	<path d="M235.89,266.73c0,0-0.21-0.11-0.62-0.33s-0.73-0.54-0.94-0.96s-0.32-0.93-0.32-1.52v-0.65c0-0.59,0.11-1.09,0.32-1.51
		s0.53-0.73,0.94-0.95s0.91-0.33,1.49-0.33c0.33,0,0.65,0.04,0.94,0.11s0.56,0.19,0.79,0.33s0.43,0.32,0.59,0.53l-1.04,1.01
		c-0.15-0.14-0.32-0.24-0.52-0.32s-0.41-0.11-0.63-0.11c-0.41,0-0.72,0.11-0.94,0.33s-0.33,0.52-0.33,0.92v0.65
		c0,0.41,0.11,0.72,0.33,0.94s0.54,0.33,0.94,0.33c0.22,0,0.43-0.04,0.63-0.12s0.37-0.2,0.52-0.35l1.04,1.07
		c-0.16,0.2-0.36,0.38-0.59,0.52s-0.5,0.25-0.79,0.33s-0.61,0.11-0.94,0.11C236.18,266.73,235.89,266.73,235.89,266.73z"/>
	<path d="M240.16,258.12h1.61v8.52h-1.61V258.12z M243.68,262.95c0-0.3-0.08-0.53-0.25-0.69s-0.41-0.25-0.72-0.25
		c-0.3,0-0.53,0.08-0.69,0.25s-0.24,0.4-0.24,0.7l-0.12-1.35c0.18-0.38,0.4-0.67,0.66-0.86s0.58-0.29,0.96-0.29
		c0.64,0,1.14,0.22,1.49,0.65s0.53,1.04,0.53,1.83v3.69h-1.61V262.95z"/>
	<path d="M248.59,266.73c0,0-0.21-0.11-0.62-0.32s-0.73-0.52-0.95-0.93s-0.33-0.9-0.33-1.47v-0.69c0-0.6,0.1-1.12,0.31-1.54
		s0.51-0.75,0.91-0.97s0.88-0.33,1.45-0.33c0.53,0,0.99,0.13,1.37,0.4s0.67,0.65,0.86,1.16s0.3,1.12,0.3,1.83v0.4h-4.16v-1.08h2.7
		l-0.02-0.14c-0.04-0.35-0.15-0.62-0.33-0.81s-0.42-0.29-0.71-0.29c-0.39,0-0.69,0.12-0.9,0.35s-0.32,0.56-0.32,0.98v0.77
		c0,0.41,0.12,0.73,0.35,0.96s0.56,0.34,0.98,0.34c0.21,0,0.43-0.04,0.64-0.11s0.4-0.18,0.57-0.33l1.05,0.93
		c-0.32,0.29-0.67,0.51-1.07,0.67s-0.79,0.24-1.2,0.24C248.89,266.73,248.59,266.73,248.59,266.73z"/>
	<path d="M255,266.73c0,0-0.21-0.11-0.62-0.33s-0.73-0.54-0.94-0.96s-0.32-0.93-0.32-1.52v-0.65c0-0.59,0.11-1.09,0.32-1.51
		s0.53-0.73,0.94-0.95s0.91-0.33,1.49-0.33c0.33,0,0.65,0.04,0.94,0.11s0.56,0.19,0.79,0.33s0.43,0.32,0.59,0.53l-1.04,1.01
		c-0.15-0.14-0.32-0.24-0.52-0.32s-0.41-0.11-0.63-0.11c-0.41,0-0.72,0.11-0.94,0.33s-0.33,0.52-0.33,0.92v0.65
		c0,0.41,0.11,0.72,0.33,0.94s0.54,0.33,0.94,0.33c0.22,0,0.43-0.04,0.63-0.12s0.37-0.2,0.52-0.35l1.04,1.07
		c-0.16,0.2-0.36,0.38-0.59,0.52s-0.5,0.25-0.79,0.33s-0.61,0.11-0.94,0.11C255.29,266.73,255,266.73,255,266.73z"/>
	<path d="M259.27,258.12h1.61v8.52h-1.61V258.12z M260.02,264.45l2.84-3.89h1.7l-4.32,5.66L260.02,264.45z M261.47,263.5l1.32-0.8
		l2.07,3.94H263L261.47,263.5z"/>
	<path d="M267.4,266.73c0,0-0.17-0.03-0.52-0.1s-0.67-0.16-0.97-0.28s-0.57-0.28-0.8-0.45l0.99-1.24c0.29,0.19,0.6,0.33,0.92,0.43
		s0.63,0.15,0.91,0.15c0.38,0,0.67-0.04,0.87-0.13s0.31-0.2,0.31-0.35c0-0.14-0.04-0.24-0.13-0.31s-0.21-0.12-0.35-0.15
		s-0.34-0.06-0.59-0.08c-0.07-0.01-0.14-0.02-0.21-0.02s-0.15-0.02-0.22-0.02c-0.02,0-0.03-0.01-0.05-0.01s-0.03,0-0.05,0
		c-0.45-0.06-0.82-0.13-1.09-0.22s-0.5-0.25-0.69-0.5s-0.28-0.6-0.28-1.06c0-0.41,0.1-0.75,0.29-1.04s0.48-0.51,0.85-0.66
		s0.82-0.23,1.35-0.23c0.31,0,0.62,0.03,0.92,0.09s0.6,0.15,0.88,0.27s0.54,0.26,0.78,0.42l-0.96,1.17
		c-0.27-0.15-0.54-0.26-0.83-0.35s-0.57-0.12-0.83-0.12c-0.32,0-0.58,0.04-0.76,0.11s-0.27,0.18-0.27,0.31
		c0,0.1,0.05,0.18,0.14,0.24s0.21,0.1,0.36,0.12s0.35,0.05,0.62,0.08c0.04,0,0.07,0.01,0.11,0.01s0.07,0.01,0.11,0.01
		c0.02,0,0.03,0.01,0.05,0.01s0.04,0,0.05,0.01c0.47,0.05,0.86,0.13,1.15,0.21s0.55,0.26,0.76,0.52s0.31,0.64,0.31,1.14
		c0,0.42-0.1,0.78-0.3,1.08s-0.5,0.53-0.89,0.69s-0.86,0.24-1.41,0.24C267.58,266.73,267.4,266.73,267.4,266.73z"/>
	<path d="M273.45,264.26c0,0.29,0.08,0.52,0.25,0.68s0.4,0.24,0.7,0.24s0.53-0.08,0.69-0.25s0.24-0.4,0.24-0.71l0.08,1.33
		c-0.11,0.33-0.3,0.61-0.57,0.84s-0.58,0.34-0.96,0.34c-0.65,0-1.16-0.21-1.51-0.63s-0.53-1.01-0.53-1.78v-3.76h1.61V264.26z
		 M275.33,260.56h1.6v6.08h-1.6V260.56z"/>
	<path d="M278.52,260.56h1.61v6.08h-1.61V260.56z M282.06,263.13c0-0.36-0.09-0.63-0.26-0.82s-0.42-0.29-0.74-0.29
		c-0.3,0-0.53,0.08-0.69,0.25s-0.24,0.4-0.24,0.7l-0.12-1.35c0.18-0.38,0.4-0.66,0.67-0.86s0.59-0.29,0.95-0.29
		c0.43,0,0.8,0.1,1.1,0.31s0.54,0.51,0.7,0.91s0.24,0.88,0.24,1.44v3.52h-1.61V263.13z M285.61,263.13c0-0.36-0.08-0.63-0.25-0.82
		s-0.41-0.29-0.72-0.29c-0.31,0-0.55,0.09-0.71,0.28s-0.25,0.45-0.25,0.79l-0.3-1.41c0.19-0.39,0.44-0.68,0.75-0.89
		s0.65-0.31,1.02-0.31c0.44,0,0.81,0.1,1.12,0.31s0.55,0.51,0.71,0.91s0.24,0.88,0.24,1.44v3.52h-1.61V263.13z"/>
</g>
<g>
	<path class="st3" d="M216.5,59.5"/>
</g>
<g>
	<path class="st3" d="M344.65,218.04"/>
</g>
<g>
	<path d="M295.83,72.37l0.51,0.88l-5.75,7.08l-0.86-1.5l4.02-4.67l-6.06,1.14l-0.86-1.5L295.83,72.37z M290.13,73.71l2.24,3.88
		l-1.34,0.77l-2.24-3.88L290.13,73.71z"/>
	<path d="M291.63,81.7c0.03-0.37,0.17-0.72,0.43-1.06s0.63-0.64,1.11-0.92l0.84-0.49c0.48-0.28,0.94-0.45,1.36-0.51
		c0.42-0.06,0.8-0.01,1.14,0.15c0.33,0.16,0.61,0.43,0.82,0.8c0.16,0.28,0.23,0.58,0.19,0.91c-0.03,0.33-0.16,0.65-0.39,0.97
		l-1.23,0.57c0.18-0.1,0.31-0.22,0.4-0.36c0.09-0.13,0.13-0.28,0.13-0.43c0-0.15-0.05-0.31-0.15-0.48
		c-0.15-0.26-0.36-0.41-0.62-0.45s-0.55,0.03-0.87,0.22l-0.84,0.48c-0.31,0.18-0.52,0.39-0.61,0.64c-0.09,0.24-0.06,0.5,0.09,0.76
		c0.1,0.17,0.21,0.29,0.34,0.37c0.13,0.08,0.28,0.12,0.43,0.11c0.16-0.01,0.32-0.06,0.49-0.16l-1.16,0.77
		c-0.35,0.06-0.67,0.02-0.96-0.11c-0.29-0.13-0.52-0.35-0.7-0.66C291.7,82.44,291.61,82.07,291.63,81.7z M300.08,79.73l0.8,1.39
		l-7.38,4.26l-0.8-1.39L300.08,79.73z"/>
	<path d="M294.87,87.3c0.03-0.37,0.17-0.72,0.43-1.06c0.26-0.33,0.63-0.64,1.11-0.92l0.84-0.49c0.48-0.28,0.94-0.45,1.36-0.51
		c0.42-0.06,0.8-0.01,1.14,0.15c0.33,0.16,0.61,0.43,0.82,0.8c0.16,0.28,0.23,0.59,0.19,0.91c-0.03,0.33-0.16,0.65-0.39,0.97
		l-1.23,0.57c0.18-0.1,0.31-0.22,0.4-0.35c0.09-0.13,0.13-0.28,0.13-0.43c0-0.15-0.05-0.31-0.15-0.48
		c-0.15-0.26-0.36-0.41-0.62-0.45c-0.26-0.04-0.55,0.03-0.87,0.22l-0.84,0.48c-0.31,0.18-0.52,0.39-0.61,0.64
		c-0.09,0.24-0.06,0.5,0.09,0.76c0.1,0.17,0.21,0.29,0.34,0.37s0.28,0.11,0.43,0.11s0.32-0.06,0.49-0.16l-1.16,0.77
		c-0.35,0.06-0.67,0.02-0.96-0.11c-0.29-0.13-0.52-0.35-0.7-0.66C294.94,88.04,294.84,87.67,294.87,87.3z M303.31,85.33l0.8,1.39
		l-7.38,4.26l-0.8-1.39L303.31,85.33z"/>
	<path d="M303.82,91.09l0.8,1.39l-7.41,4.28l-0.8-1.39L303.82,91.09z M299.76,95.85c0.03-0.31,0.16-0.61,0.38-0.88l1.24-0.62
		c-0.17,0.1-0.3,0.22-0.39,0.35c-0.09,0.13-0.13,0.27-0.13,0.43s0.05,0.31,0.15,0.48c0.15,0.26,0.35,0.41,0.61,0.46
		c0.26,0.04,0.54-0.03,0.86-0.21l0.84-0.48c0.32-0.19,0.53-0.4,0.62-0.65s0.07-0.5-0.08-0.76c-0.1-0.17-0.21-0.29-0.34-0.37
		c-0.13-0.08-0.28-0.11-0.44-0.1c-0.16,0.01-0.33,0.07-0.51,0.17l1.11-0.78c0.39-0.04,0.74,0.01,1.04,0.15
		c0.3,0.14,0.53,0.34,0.69,0.62c0.21,0.37,0.31,0.74,0.28,1.11c-0.03,0.37-0.17,0.72-0.44,1.06c-0.27,0.34-0.64,0.65-1.12,0.93
		l-0.84,0.49c-0.48,0.28-0.93,0.45-1.35,0.5s-0.8,0-1.13-0.16c-0.33-0.16-0.61-0.43-0.82-0.8
		C299.81,96.48,299.73,96.17,299.76,95.85z"/>
	<path d="M307.08,96.74l0.86,1.49l-5.27,3.04l-0.86-1.49L307.08,96.74z M307.34,100.21c-0.02-0.12-0.07-0.24-0.15-0.37
		c-0.16-0.28-0.38-0.45-0.65-0.5s-0.57,0.02-0.89,0.2l1.31-0.9c0.4-0.04,0.75,0.01,1.06,0.14c0.31,0.13,0.54,0.33,0.7,0.61
		c0.13,0.22,0.21,0.44,0.24,0.66c0.03,0.22,0.02,0.43-0.04,0.64l-1.6-0.16C307.36,100.44,307.36,100.33,307.34,100.21z"/>
	<path d="M305.11,105.66c0,0-0.01-0.23-0.04-0.7c-0.02-0.47,0.09-0.9,0.33-1.29c0.24-0.39,0.62-0.73,1.11-1.02l0.59-0.34
		c0.52-0.3,1.02-0.47,1.49-0.5c0.47-0.03,0.91,0.07,1.3,0.31c0.39,0.23,0.73,0.6,1.01,1.09c0.27,0.46,0.38,0.92,0.34,1.38
		s-0.23,0.9-0.57,1.33c-0.34,0.42-0.82,0.81-1.44,1.17l-0.34,0.2l-2.08-3.6l0.94-0.54l1.35,2.33l0.11-0.09
		c0.28-0.21,0.46-0.44,0.54-0.69c0.08-0.25,0.04-0.5-0.11-0.76c-0.19-0.33-0.44-0.54-0.75-0.61c-0.31-0.07-0.64,0-1.01,0.21
		l-0.67,0.39c-0.36,0.21-0.58,0.47-0.66,0.78s-0.02,0.65,0.19,1.01c0.11,0.19,0.25,0.35,0.42,0.5c0.17,0.14,0.36,0.26,0.57,0.33
		l-0.28,1.37c-0.41-0.13-0.78-0.33-1.11-0.59c-0.33-0.26-0.6-0.57-0.8-0.92C305.25,105.91,305.11,105.66,305.11,105.66z"/>
	<path d="M313.61,106.38c0.47-0.27,0.88-0.36,1.23-0.28c0.36,0.08,0.66,0.34,0.92,0.79l0.56,0.96l-1.24,0.71l-0.34-0.59
		c-0.06-0.1-0.14-0.15-0.24-0.16s-0.21,0.02-0.33,0.09l-5.74,3.31l-0.8-1.39L313.61,106.38z M312.57,106.24l1.64,2.84l-1.19,0.69
		l-1.64-2.84L312.57,106.24z"/>
	<path d="M314.75,110.01l0.8,1.39l-5.27,3.04l-0.8-1.39L314.75,110.01z M316.86,108.79l0.8,1.39l-1.39,0.8l-0.8-1.39L316.86,108.79z
		"/>
	<path d="M314.72,115.42l-0.48,1.38l-2.65-0.08l-0.85-1.48L314.72,115.42z M314.14,116.09l1.92-3.82l0.88,1.53l-1.4,2.49l-1.95,3.88
		l-0.88-1.53L314.14,116.09z M315.5,115.62l2.43-0.1l0.88,1.53l-3.82-0.05L315.5,115.62z"/>
	<path d="M320.21,123.18l-0.04,0.35c-0.2,0-0.39-0.06-0.56-0.19c-0.17-0.13-0.32-0.31-0.46-0.54c-0.21-0.37-0.31-0.75-0.3-1.14
		c0.02-0.39,0.14-0.75,0.38-1.09c0.24-0.34,0.57-0.64,1-0.89l0.01,0c0.48-0.28,0.93-0.43,1.37-0.45c0.44-0.03,0.83,0.07,1.2,0.29
		c0.36,0.22,0.68,0.56,0.94,1.02c0.26,0.45,0.4,0.89,0.4,1.32s-0.11,0.82-0.36,1.19s-0.61,0.69-1.09,0.97l-0.01,0
		c-0.25,0.14-0.53,0.26-0.86,0.35s-0.69,0.17-1.1,0.24c-0.06,0.01-0.12,0.02-0.17,0.03c-0.06,0.01-0.12,0.02-0.17,0.02l-3.92,0.51
		l-0.85-1.47L320.21,123.18z M321.18,122.78c0.23,0.04,0.5-0.02,0.78-0.19l0,0c0.28-0.16,0.45-0.35,0.53-0.57s0.04-0.45-0.1-0.7
		c-0.14-0.25-0.33-0.39-0.56-0.44c-0.23-0.05-0.48,0.01-0.76,0.17l0,0c-0.29,0.17-0.47,0.36-0.55,0.58
		c-0.08,0.22-0.05,0.46,0.1,0.71C320.76,122.59,320.95,122.74,321.18,122.78z"/>
	<path d="M326.98,128.46l-7.41,2.07l-0.87-1.51l6.96-1.88l-0.73-1.27l-1.11,0.64l-0.8-1.39l2.45-1.42l2.43,4.22L326.98,128.46z"/>
	<path d="M322,134.33c-0.04-0.45,0.05-0.86,0.25-1.23s0.5-0.68,0.91-0.91l0.12-0.07c0.37-0.21,0.77-0.31,1.22-0.3
		s0.84,0.14,1.2,0.39c-0.03-0.37,0.04-0.72,0.21-1.05s0.39-0.58,0.69-0.75l0.19-0.11c0.39-0.22,0.78-0.33,1.17-0.32
		c0.4,0.01,0.77,0.14,1.12,0.37c0.35,0.24,0.65,0.57,0.9,1.01c0.25,0.44,0.39,0.87,0.42,1.29c0.03,0.42-0.05,0.81-0.24,1.16
		c-0.19,0.35-0.47,0.64-0.86,0.86l-0.19,0.11c-0.3,0.18-0.64,0.25-1.01,0.22c-0.37-0.03-0.7-0.15-1.01-0.36
		c0.03,0.44-0.06,0.86-0.26,1.25c-0.2,0.39-0.49,0.7-0.86,0.91l-0.12,0.07c-0.41,0.24-0.82,0.35-1.25,0.33
		c-0.42-0.01-0.82-0.15-1.19-0.4s-0.69-0.62-0.96-1.08S322.04,134.79,322,134.33z M324.2,135.37c0.16,0.1,0.33,0.15,0.52,0.15
		s0.37-0.05,0.55-0.16l0.07-0.04c0.17-0.1,0.29-0.22,0.37-0.37s0.11-0.32,0.1-0.5c-0.01-0.18-0.07-0.37-0.18-0.56
		s-0.24-0.34-0.39-0.44s-0.31-0.16-0.49-0.16c-0.17-0.01-0.34,0.04-0.51,0.13l-0.08,0.04c-0.18,0.1-0.31,0.23-0.41,0.39
		c-0.09,0.16-0.13,0.33-0.12,0.52c0.01,0.19,0.07,0.37,0.17,0.56C323.91,135.12,324.04,135.27,324.2,135.37z M327.31,133.47
		c0.14,0.08,0.29,0.12,0.46,0.11c0.17-0.01,0.33-0.06,0.5-0.15l0.07-0.04c0.16-0.09,0.27-0.2,0.35-0.33
		c0.08-0.13,0.12-0.28,0.11-0.44c0-0.16-0.05-0.32-0.15-0.47c-0.09-0.16-0.2-0.28-0.34-0.36s-0.28-0.12-0.44-0.12
		c-0.16,0-0.31,0.05-0.47,0.14l-0.08,0.04c-0.16,0.09-0.29,0.21-0.37,0.35s-0.13,0.29-0.13,0.45s0.05,0.32,0.14,0.48
		C327.06,133.27,327.17,133.39,327.31,133.47z"/>
	<path d="M325.41,139.54c0.15-0.59,0.56-1.07,1.21-1.45l3.35-1.94c0.66-0.38,1.29-0.49,1.87-0.33c0.58,0.17,1.08,0.61,1.5,1.32
		c0.42,0.72,0.55,1.37,0.4,1.96s-0.56,1.07-1.22,1.46l-3.35,1.94c-0.66,0.38-1.29,0.49-1.87,0.33c-0.58-0.17-1.08-0.61-1.5-1.32
		C325.39,140.78,325.25,140.13,325.41,139.54z M327.79,141.18c0.27,0.02,0.58-0.07,0.94-0.28l2.64-1.53
		c0.36-0.21,0.6-0.43,0.71-0.67s0.09-0.5-0.07-0.78c-0.16-0.28-0.38-0.43-0.64-0.45s-0.58,0.07-0.94,0.28l-2.64,1.53
		c-0.36,0.21-0.6,0.43-0.71,0.67c-0.11,0.24-0.09,0.5,0.07,0.78C327.3,141.01,327.52,141.16,327.79,141.18z"/>
	<path d="M255.56,45.36l-0.77-1.34l4.12-2.38l0.77,1.34L255.56,45.36z M259.12,45.29l-1.29,0.74l-2.5-4.32l1.29-0.74L259.12,45.29z"
		/>
	<path d="M262.1,47.63l0.86,1.49l-5.27,3.04l-0.86-1.49L262.1,47.63z M262.36,51.11c-0.02-0.12-0.07-0.24-0.15-0.37
		c-0.16-0.28-0.38-0.45-0.65-0.5c-0.27-0.05-0.57,0.02-0.89,0.2l1.31-0.9c0.4-0.04,0.75,0.01,1.06,0.14
		c0.31,0.13,0.54,0.34,0.7,0.61c0.13,0.22,0.21,0.44,0.24,0.66s0.02,0.43-0.04,0.64l-1.6-0.16
		C262.38,51.33,262.38,51.22,262.36,51.11z"/>
	<path d="M260.13,56.55c0,0-0.01-0.23-0.04-0.7c-0.02-0.47,0.09-0.9,0.33-1.29s0.61-0.73,1.11-1.02l0.59-0.34
		c0.52-0.3,1.02-0.47,1.49-0.5c0.47-0.03,0.91,0.07,1.3,0.3c0.39,0.24,0.73,0.6,1.01,1.09c0.27,0.46,0.38,0.92,0.34,1.38
		c-0.04,0.46-0.23,0.9-0.57,1.33c-0.34,0.42-0.82,0.81-1.44,1.17l-0.34,0.2l-2.08-3.6l0.94-0.54l1.35,2.33l0.11-0.09
		c0.28-0.21,0.46-0.44,0.54-0.69c0.08-0.25,0.04-0.5-0.11-0.76c-0.19-0.33-0.44-0.54-0.75-0.61s-0.64,0-1.01,0.21l-0.67,0.39
		c-0.36,0.21-0.58,0.47-0.66,0.78s-0.02,0.65,0.19,1.01c0.11,0.19,0.25,0.35,0.42,0.5c0.17,0.14,0.36,0.26,0.57,0.33l-0.28,1.38
		c-0.41-0.13-0.78-0.33-1.11-0.59c-0.33-0.26-0.6-0.57-0.8-0.92C260.27,56.8,260.13,56.55,260.13,56.55z"/>
	<path d="M263.33,62.1c0,0-0.01-0.23-0.02-0.7c-0.01-0.47,0.11-0.9,0.37-1.3c0.26-0.4,0.64-0.74,1.16-1.04l0.56-0.33
		c0.51-0.29,1-0.45,1.47-0.48c0.47-0.02,0.9,0.09,1.29,0.34c0.4,0.25,0.74,0.62,1.03,1.12c0.17,0.29,0.29,0.58,0.37,0.87
		c0.08,0.29,0.12,0.58,0.11,0.85s-0.06,0.53-0.16,0.77l-1.39-0.39c0.04-0.2,0.05-0.4,0.02-0.61c-0.03-0.21-0.11-0.41-0.21-0.6
		c-0.2-0.35-0.45-0.57-0.75-0.66c-0.3-0.08-0.62-0.03-0.96,0.17l-0.56,0.33c-0.35,0.2-0.57,0.46-0.65,0.76
		c-0.08,0.3-0.02,0.63,0.18,0.98c0.11,0.19,0.25,0.35,0.42,0.49c0.17,0.13,0.36,0.22,0.56,0.27l-0.41,1.43
		c-0.26-0.04-0.5-0.12-0.75-0.25c-0.24-0.13-0.47-0.31-0.68-0.52c-0.21-0.22-0.4-0.47-0.57-0.76
		C263.48,62.35,263.33,62.1,263.33,62.1z"/>
	<path d="M265.97,65.73c0.11-0.43,0.44-0.81,0.98-1.13c0.52-0.3,1-0.37,1.44-0.21c0.44,0.16,0.84,0.56,1.2,1.18l0.76,1.32
		l-1.02,0.68l-0.8-1.39c-0.12-0.21-0.25-0.34-0.4-0.4c-0.14-0.06-0.3-0.04-0.47,0.06c-0.17,0.1-0.26,0.24-0.27,0.42
		s0.07,0.4,0.22,0.67c0.21,0.37,0.42,0.63,0.61,0.76c0.19,0.13,0.37,0.15,0.55,0.04l-0.71,0.55c-0.2,0.09-0.41,0.09-0.63,0.02
		c-0.22-0.08-0.43-0.21-0.63-0.41c-0.2-0.19-0.37-0.42-0.52-0.68C265.97,66.66,265.86,66.16,265.97,65.73z M270.55,66.72
		c0.24-0.14,0.38-0.33,0.42-0.57c0.04-0.24-0.03-0.51-0.2-0.8c-0.11-0.2-0.26-0.37-0.43-0.53c-0.18-0.16-0.36-0.27-0.56-0.36
		l0.35-1.35c0.36,0.07,0.71,0.24,1.04,0.51c0.33,0.27,0.62,0.61,0.86,1.03c0.27,0.46,0.42,0.9,0.45,1.31
		c0.03,0.41-0.05,0.79-0.24,1.13s-0.5,0.63-0.91,0.87l-3.38,1.95l-0.73-1.26L270.55,66.72z"/>
	<path d="M271.28,71.67c-0.13,0.07-0.21,0.17-0.23,0.28c-0.03,0.11,0,0.24,0.08,0.37l0.13,0.23l-1.34,0.77l-0.41-0.71
		c-0.24-0.42-0.31-0.82-0.2-1.2c0.11-0.37,0.38-0.69,0.83-0.94l5.98-3.45l0.8,1.39L271.28,71.67z"/>
	<path d="M271.25,75.81c0,0-0.01-0.23-0.02-0.7c-0.01-0.47,0.11-0.9,0.37-1.3c0.26-0.4,0.64-0.74,1.16-1.04l0.56-0.33
		c0.51-0.29,1-0.45,1.47-0.47c0.47-0.02,0.9,0.09,1.29,0.34c0.4,0.25,0.74,0.62,1.03,1.12c0.17,0.29,0.29,0.58,0.37,0.87
		c0.08,0.29,0.12,0.58,0.11,0.85s-0.06,0.53-0.16,0.77l-1.39-0.39c0.04-0.2,0.05-0.4,0.02-0.61c-0.03-0.21-0.11-0.41-0.21-0.6
		c-0.2-0.35-0.45-0.57-0.75-0.65c-0.3-0.08-0.62-0.03-0.96,0.17l-0.56,0.33c-0.35,0.2-0.57,0.46-0.65,0.76
		c-0.08,0.3-0.02,0.63,0.18,0.98c0.11,0.19,0.25,0.35,0.42,0.49c0.17,0.13,0.36,0.22,0.56,0.27l-0.41,1.43
		c-0.26-0.04-0.5-0.12-0.75-0.25c-0.24-0.13-0.47-0.31-0.68-0.52c-0.21-0.22-0.4-0.47-0.57-0.76
		C271.39,76.07,271.25,75.81,271.25,75.81z"/>
	<path d="M276.26,79.54c-0.25,0.15-0.41,0.33-0.47,0.56c-0.06,0.23-0.01,0.47,0.14,0.73s0.34,0.42,0.56,0.48
		c0.22,0.06,0.47,0.01,0.74-0.15l-1.11,0.74c-0.34,0.07-0.68,0.04-1.01-0.07c-0.33-0.12-0.59-0.34-0.78-0.67
		c-0.33-0.57-0.4-1.11-0.21-1.62c0.19-0.52,0.61-0.97,1.28-1.35l3.25-1.88l0.8,1.39L276.26,79.54z M280.4,79.33l0.8,1.39l-5.27,3.04
		l-0.8-1.39L280.4,79.33z"/>
	<path d="M279.27,85.51c-0.13,0.07-0.21,0.17-0.23,0.28c-0.03,0.11,0,0.24,0.08,0.37l0.13,0.23l-1.34,0.77l-0.41-0.71
		c-0.24-0.42-0.31-0.82-0.2-1.2c0.11-0.37,0.38-0.69,0.83-0.94l5.98-3.45l0.8,1.39L279.27,85.51z"/>
	<path d="M278.86,88.06c0.11-0.43,0.44-0.81,0.98-1.13c0.52-0.3,1-0.37,1.44-0.21s0.84,0.56,1.2,1.18l0.76,1.32l-1.02,0.68
		l-0.8-1.39c-0.12-0.21-0.25-0.34-0.4-0.4c-0.14-0.06-0.3-0.04-0.47,0.06c-0.17,0.1-0.26,0.24-0.27,0.42s0.07,0.4,0.22,0.67
		c0.21,0.37,0.42,0.62,0.61,0.76c0.19,0.13,0.37,0.15,0.55,0.04l-0.71,0.55c-0.2,0.09-0.41,0.09-0.63,0.02
		c-0.22-0.08-0.43-0.21-0.63-0.41c-0.2-0.19-0.37-0.42-0.52-0.68C278.86,88.99,278.75,88.49,278.86,88.06z M283.45,89.05
		c0.24-0.14,0.38-0.33,0.42-0.57c0.04-0.24-0.03-0.51-0.2-0.8c-0.11-0.2-0.26-0.37-0.43-0.53c-0.18-0.16-0.36-0.27-0.56-0.36
		l0.35-1.35c0.36,0.07,0.71,0.24,1.04,0.51c0.33,0.27,0.62,0.61,0.86,1.03c0.27,0.46,0.42,0.9,0.45,1.31
		c0.03,0.41-0.05,0.79-0.24,1.13s-0.5,0.63-0.91,0.87l-3.38,1.95l-0.73-1.26L283.45,89.05z"/>
	<path d="M282.22,93.88c0.11-0.35,0.4-0.66,0.86-0.92l5.43-3.13l0.8,1.39l-5.08,2.94c-0.13,0.07-0.21,0.16-0.25,0.25
		s-0.03,0.19,0.02,0.28l0.2,0.34l-1.34,0.77l-0.4-0.7C282.19,94.64,282.11,94.23,282.22,93.88z M286.66,90.17l1.49,2.58l-1.19,0.69
		l-1.49-2.58L286.66,90.17z"/>
	<path d="M284.37,98.54c0,0-0.01-0.23-0.04-0.7s0.09-0.9,0.33-1.29s0.61-0.73,1.11-1.02l0.59-0.34c0.52-0.3,1.02-0.47,1.49-0.5
		c0.47-0.03,0.91,0.07,1.3,0.31c0.39,0.24,0.73,0.6,1.01,1.09c0.27,0.46,0.38,0.92,0.34,1.38c-0.04,0.46-0.23,0.9-0.57,1.33
		c-0.34,0.42-0.82,0.81-1.44,1.17l-0.34,0.2l-2.08-3.6l0.94-0.54l1.35,2.33l0.11-0.08c0.28-0.21,0.46-0.44,0.54-0.69
		s0.04-0.5-0.11-0.76c-0.19-0.33-0.44-0.54-0.75-0.61s-0.64,0-1.01,0.21l-0.67,0.39c-0.36,0.21-0.58,0.47-0.66,0.78
		s-0.02,0.65,0.19,1.01c0.11,0.19,0.25,0.35,0.42,0.5c0.17,0.14,0.36,0.26,0.57,0.33l-0.28,1.37c-0.41-0.13-0.78-0.33-1.11-0.59
		s-0.6-0.57-0.8-0.92C284.52,98.8,284.37,98.54,284.37,98.54z"/>
	<path d="M288.66,105.79l-0.83-1.44l7.38-4.26l0.83,1.44L288.66,105.79z"/>
	<path d="M290.5,109.15c0,0-0.06-0.19-0.18-0.57c-0.12-0.38-0.2-0.75-0.24-1.13c-0.03-0.38-0.02-0.74,0.04-1.08l1.52-0.02
		c-0.07,0.42-0.06,0.85,0.03,1.3s0.25,0.86,0.47,1.26c0.26,0.45,0.54,0.76,0.84,0.92c0.3,0.16,0.59,0.16,0.87,0l0,0
		c0.2-0.11,0.32-0.26,0.37-0.44s0.05-0.37,0-0.58c-0.05-0.21-0.13-0.47-0.25-0.78c0-0.01-0.01-0.02-0.01-0.03s-0.01-0.02-0.01-0.03
		l-0.05-0.12c-0.21-0.54-0.35-1-0.42-1.4c-0.07-0.39-0.03-0.79,0.14-1.18s0.51-0.75,1.05-1.06l0,0c0.48-0.28,0.95-0.4,1.41-0.39
		c0.46,0.02,0.9,0.18,1.31,0.48s0.78,0.74,1.12,1.32c0.15,0.26,0.28,0.55,0.38,0.86c0.1,0.31,0.17,0.63,0.2,0.96
		s0.04,0.66,0.02,0.99l-1.52,0.09c0.03-0.4,0.01-0.78-0.06-1.15c-0.07-0.37-0.19-0.7-0.35-0.98c-0.25-0.43-0.51-0.72-0.78-0.87
		c-0.27-0.15-0.54-0.16-0.79-0.01l0,0c-0.21,0.12-0.35,0.28-0.4,0.47c-0.05,0.19-0.06,0.4-0.01,0.61c0.05,0.21,0.13,0.5,0.25,0.86
		c0,0.01,0.01,0.03,0.02,0.04c0.01,0.01,0.01,0.03,0.02,0.04c0.01,0.02,0.02,0.04,0.02,0.07s0.01,0.04,0.02,0.07
		c0.18,0.52,0.29,0.97,0.34,1.36c0.05,0.39-0.01,0.77-0.18,1.15c-0.17,0.38-0.5,0.71-1,1l-0.01,0.01c-0.47,0.27-0.94,0.39-1.4,0.37
		s-0.9-0.2-1.32-0.52c-0.42-0.32-0.8-0.78-1.14-1.37C290.6,109.32,290.5,109.15,290.5,109.15z"/>
	<path d="M300.61,109.45l0.8,1.39l-7.38,4.26l-0.8-1.39L300.61,109.45z M294.92,113.55l1.36,2.35c0.18,0.32,0.4,0.52,0.66,0.61
		s0.52,0.05,0.8-0.11l0.02-0.01c0.19-0.11,0.32-0.24,0.41-0.39c0.09-0.15,0.12-0.33,0.1-0.52s-0.09-0.39-0.21-0.6l-1.36-2.35
		l1.34-0.77l1.36,2.35c0.17,0.29,0.37,0.47,0.6,0.54c0.24,0.07,0.49,0.03,0.75-0.12c0.24-0.14,0.38-0.32,0.42-0.55
		c0.04-0.23-0.02-0.49-0.19-0.78l-1.36-2.35l1.34-0.77l1.39,2.4c0.28,0.48,0.43,0.93,0.47,1.36s-0.04,0.82-0.24,1.17
		c-0.2,0.35-0.51,0.64-0.93,0.89c-0.29,0.17-0.57,0.26-0.86,0.27s-0.56-0.04-0.83-0.18c-0.27-0.13-0.51-0.34-0.74-0.61
		c0.14,0.35,0.21,0.69,0.19,1.01s-0.12,0.61-0.3,0.88s-0.43,0.49-0.75,0.67l-0.02,0.01c-0.42,0.24-0.84,0.36-1.24,0.36
		c-0.4,0-0.78-0.13-1.14-0.38c-0.35-0.25-0.67-0.61-0.94-1.09l-1.44-2.49L294.92,113.55z"/>
	<path d="M304.48,116.16l0.98,1.7l-4.07,6.01l-0.2-0.05l5.79-3.34l0.77,1.33l-7.37,4.26l-0.99-1.71l3.99-5.95l0.2,0.05l-5.7,3.29
		l-0.77-1.33L304.48,116.16z"/>
	<path d="M306.65,129.29l-1.34,0.77l-2.09-3.61l1.34-0.77L306.65,129.29z"/>
	<path d="M305.15,134.36l-0.8-1.39l5.74-3.32l-0.86-0.7l1.48-0.85l1.13,0.81l0.69,1.19L305.15,134.36z"/>
	<path d="M306.73,137.27c0,0-0.02-0.22-0.06-0.66c-0.04-0.44,0.04-0.86,0.23-1.24c0.19-0.39,0.5-0.71,0.92-0.98l0.83,1.44
		c-0.14,0.11-0.24,0.23-0.31,0.36s-0.1,0.27-0.09,0.41s0.05,0.28,0.13,0.42c0.15,0.26,0.34,0.42,0.57,0.48
		c0.23,0.06,0.48,0.01,0.75-0.14l0.17-0.1c0.28-0.16,0.46-0.35,0.55-0.55c0.08-0.2,0.07-0.42-0.06-0.63l-0.36-0.63l1.34-0.77
		l0.36,0.63c0.1,0.18,0.25,0.27,0.44,0.29c0.19,0.02,0.4-0.04,0.64-0.18l0.13-0.07c0.23-0.13,0.37-0.29,0.43-0.46
		c0.06-0.18,0.04-0.36-0.07-0.56c-0.07-0.13-0.17-0.22-0.29-0.29c-0.12-0.07-0.27-0.1-0.43-0.1c-0.16,0-0.34,0.03-0.53,0.1
		l-0.83-1.43c0.47-0.22,0.93-0.32,1.37-0.31c0.44,0.01,0.84,0.13,1.2,0.36c0.36,0.23,0.65,0.54,0.88,0.94
		c0.38,0.65,0.5,1.25,0.38,1.8c-0.13,0.55-0.5,1-1.11,1.35l-0.22,0.13c-0.34,0.2-0.69,0.28-1.04,0.26
		c-0.35-0.03-0.68-0.16-0.99-0.41c0.12,0.4,0.1,0.78-0.08,1.15c-0.18,0.36-0.49,0.67-0.94,0.93l-0.22,0.13
		c-0.43,0.25-0.85,0.38-1.25,0.38c-0.4,0.01-0.78-0.11-1.12-0.34c-0.35-0.23-0.65-0.58-0.92-1.03
		C306.86,137.49,306.73,137.27,306.73,137.27z"/>
	<path d="M311.01,144.67c0,0-0.01-0.23-0.02-0.7c-0.01-0.47,0.11-0.9,0.37-1.3c0.26-0.4,0.64-0.74,1.16-1.04l0.56-0.33
		c0.51-0.29,1-0.45,1.47-0.48c0.47-0.02,0.9,0.09,1.29,0.34c0.4,0.25,0.74,0.62,1.03,1.12c0.17,0.29,0.29,0.58,0.37,0.87
		c0.08,0.29,0.12,0.58,0.11,0.85s-0.06,0.53-0.16,0.77l-1.39-0.39c0.04-0.2,0.05-0.4,0.02-0.61c-0.03-0.21-0.11-0.41-0.21-0.6
		c-0.2-0.35-0.45-0.57-0.75-0.65c-0.3-0.08-0.62-0.03-0.96,0.17l-0.56,0.33c-0.35,0.2-0.57,0.46-0.65,0.76
		c-0.08,0.3-0.02,0.63,0.18,0.98c0.11,0.19,0.25,0.35,0.42,0.49c0.17,0.13,0.36,0.22,0.56,0.27l-0.41,1.43
		c-0.26-0.04-0.5-0.12-0.75-0.25c-0.24-0.13-0.47-0.31-0.68-0.52c-0.21-0.22-0.4-0.47-0.57-0.76
		C311.15,144.92,311.01,144.67,311.01,144.67z"/>
	<path d="M320.6,144.07l0.8,1.39l-7.38,4.26l-0.8-1.39L320.6,144.07z M318.17,149.53c0.26-0.15,0.41-0.34,0.47-0.57
		c0.06-0.23,0.01-0.48-0.15-0.75c-0.15-0.26-0.34-0.41-0.56-0.47s-0.47-0.01-0.73,0.14l1.11-0.78c0.42-0.03,0.78,0.01,1.08,0.14
		c0.29,0.13,0.54,0.36,0.73,0.69c0.32,0.55,0.38,1.09,0.18,1.61c-0.2,0.52-0.64,0.98-1.32,1.37l-3.2,1.85l-0.8-1.39L318.17,149.53z"
		/>
	<path d="M317.36,155.67c0,0-0.01-0.23-0.04-0.7c-0.02-0.47,0.09-0.9,0.33-1.29s0.62-0.73,1.11-1.02l0.59-0.34
		c0.52-0.3,1.02-0.47,1.49-0.5c0.47-0.03,0.91,0.07,1.3,0.3s0.73,0.6,1.01,1.09c0.27,0.46,0.38,0.92,0.34,1.38
		c-0.04,0.46-0.23,0.9-0.57,1.33c-0.34,0.42-0.82,0.81-1.44,1.17l-0.34,0.2l-2.08-3.6l0.94-0.54l1.35,2.33l0.11-0.09
		c0.28-0.21,0.46-0.44,0.54-0.69c0.08-0.25,0.04-0.5-0.11-0.76c-0.19-0.33-0.44-0.54-0.75-0.61c-0.3-0.07-0.64,0-1.01,0.21
		l-0.67,0.39c-0.36,0.21-0.58,0.47-0.66,0.78c-0.08,0.31-0.02,0.65,0.19,1.01c0.11,0.19,0.25,0.35,0.42,0.5
		c0.17,0.14,0.36,0.26,0.57,0.33l-0.28,1.37c-0.41-0.13-0.78-0.33-1.12-0.59c-0.33-0.26-0.6-0.57-0.8-0.92
		C317.5,155.93,317.36,155.67,317.36,155.67z"/>
	<path d="M320.56,161.23c0,0-0.01-0.23-0.02-0.7c-0.01-0.47,0.11-0.9,0.36-1.3c0.26-0.4,0.64-0.74,1.16-1.04l0.56-0.33
		c0.51-0.29,1-0.45,1.47-0.48c0.47-0.02,0.9,0.09,1.29,0.34c0.4,0.25,0.74,0.62,1.03,1.12c0.17,0.29,0.29,0.58,0.37,0.87
		c0.08,0.29,0.12,0.58,0.11,0.85c-0.01,0.28-0.06,0.53-0.16,0.77l-1.39-0.39c0.04-0.2,0.05-0.4,0.02-0.61
		c-0.03-0.21-0.1-0.41-0.21-0.6c-0.2-0.35-0.45-0.57-0.75-0.65c-0.3-0.08-0.62-0.03-0.96,0.17l-0.56,0.33
		c-0.35,0.2-0.57,0.46-0.65,0.76c-0.08,0.3-0.02,0.63,0.18,0.98c0.11,0.19,0.25,0.36,0.42,0.49c0.17,0.13,0.36,0.22,0.56,0.27
		l-0.41,1.43c-0.26-0.04-0.5-0.12-0.75-0.25s-0.47-0.31-0.68-0.52c-0.21-0.22-0.4-0.47-0.57-0.76
		C320.71,161.48,320.56,161.23,320.56,161.23z"/>
	<path d="M330.15,160.62l0.8,1.39l-7.38,4.26l-0.8-1.39L330.15,160.62z M325.05,164.44l4.79,0.51l0.85,1.47l-7.06-0.91
		L325.05,164.44z M326.59,165.21l1.35,0.75l-2.38,3.76l-0.93-1.61L326.59,165.21z"/>
	<path d="M326.76,171.96c0,0-0.06-0.17-0.17-0.5c-0.12-0.33-0.2-0.66-0.24-0.98c-0.04-0.32-0.04-0.63-0.01-0.92l1.57,0.24
		c-0.02,0.35,0.01,0.69,0.08,1.01s0.18,0.62,0.33,0.87c0.19,0.33,0.37,0.56,0.54,0.69c0.18,0.14,0.33,0.17,0.46,0.09
		c0.12-0.07,0.19-0.16,0.2-0.27c0.02-0.11,0-0.24-0.04-0.37c-0.04-0.14-0.12-0.32-0.23-0.55c-0.03-0.06-0.06-0.13-0.09-0.2
		s-0.06-0.13-0.09-0.2c-0.01-0.01-0.01-0.03-0.02-0.05c-0.01-0.02-0.02-0.03-0.02-0.04c-0.18-0.42-0.29-0.77-0.36-1.05
		c-0.06-0.28-0.04-0.56,0.08-0.85c0.12-0.29,0.38-0.54,0.78-0.78c0.35-0.2,0.7-0.29,1.05-0.27c0.35,0.02,0.68,0.16,1,0.41
		c0.32,0.25,0.61,0.6,0.87,1.05c0.15,0.27,0.28,0.55,0.38,0.85s0.17,0.6,0.21,0.9c0.04,0.3,0.05,0.6,0.03,0.89l-1.49-0.24
		c0-0.3-0.04-0.6-0.12-0.89s-0.18-0.55-0.31-0.78c-0.16-0.28-0.32-0.48-0.47-0.6c-0.15-0.12-0.29-0.14-0.4-0.08
		c-0.09,0.05-0.13,0.13-0.13,0.24c0,0.11,0.02,0.23,0.07,0.37c0.05,0.14,0.13,0.33,0.24,0.58c0.01,0.03,0.03,0.07,0.04,0.1
		c0.01,0.03,0.03,0.06,0.04,0.1c0,0.02,0.01,0.03,0.02,0.05c0.01,0.02,0.02,0.03,0.02,0.05c0.19,0.44,0.32,0.8,0.39,1.11
		c0.07,0.3,0.05,0.6-0.07,0.92c-0.12,0.31-0.39,0.59-0.83,0.84c-0.37,0.21-0.73,0.3-1.09,0.28s-0.71-0.17-1.04-0.43
		c-0.33-0.26-0.64-0.63-0.91-1.1C326.85,172.12,326.76,171.96,326.76,171.96z"/>
	<path d="M331.93,175.96c-0.25,0.15-0.41,0.33-0.47,0.56s-0.01,0.47,0.14,0.73s0.34,0.42,0.56,0.48c0.22,0.06,0.47,0.01,0.74-0.14
		l-1.11,0.74c-0.34,0.07-0.68,0.04-1.01-0.07s-0.59-0.34-0.78-0.67c-0.33-0.56-0.4-1.11-0.21-1.62s0.61-0.97,1.28-1.35l3.25-1.88
		l0.8,1.39L331.93,175.96z M336.07,175.75l0.8,1.38l-5.27,3.04l-0.8-1.38L336.07,175.75z"/>
	<path d="M337.66,178.5l0.8,1.39l-5.27,3.04l-0.8-1.39L337.66,178.5z M337.21,182.86c0.31-0.18,0.5-0.39,0.58-0.64
		c0.08-0.25,0.04-0.51-0.12-0.79c-0.15-0.26-0.34-0.41-0.56-0.47s-0.47-0.01-0.73,0.14l1.11-0.78c0.42-0.03,0.77,0.02,1.08,0.16
		s0.55,0.36,0.73,0.68c0.21,0.37,0.31,0.74,0.28,1.11c-0.03,0.37-0.17,0.72-0.44,1.06c-0.27,0.34-0.64,0.65-1.12,0.93l-3.04,1.76
		l-0.8-1.39L337.21,182.86z M338.98,185.93c0.31-0.18,0.5-0.39,0.58-0.63s0.05-0.5-0.11-0.77c-0.15-0.27-0.35-0.43-0.6-0.48
		c-0.24-0.05-0.51,0.01-0.81,0.18l1.07-0.96c0.43-0.03,0.81,0.04,1.15,0.2c0.33,0.16,0.59,0.4,0.78,0.73
		c0.22,0.38,0.32,0.75,0.29,1.13c-0.02,0.37-0.17,0.73-0.43,1.07c-0.26,0.34-0.64,0.65-1.12,0.93l-3.04,1.76l-0.8-1.39
		L338.98,185.93z"/>
</g>
<g>
	<g>
		<line class="st4" x1="71" y1="206.17" x2="168.77" y2="36.83"/>
		<g>
			<polygon points="76.05,207.4 67.41,212.38 67.41,202.41 			"/>
		</g>
	</g>
</g>
<g>
	<g>
		<line class="st4" x1="328.18" y1="206.17" x2="230.41" y2="36.83"/>
		<g>
			<polygon points="331.77,202.41 331.77,212.38 323.13,207.4 			"/>
		</g>
	</g>
</g>
<g>
</g>
<g>
</g>
<g>
</g>
<g>
</g>
<g>
</g>
<g>
</g>
<g>
</g>
<g>
</g>
<g>
</g>
<g>
</g>
<g>
</g>
<g>
</g>
<g>
</g>
<g>
</g>
<g>
</g>
<g>
</g>
</svg>
